<?xml version="1.0" encoding="utf-8"?>
<!-- Generator: Adobe Illustrator 27.0.0, SVG Export Plug-In . SVG Version: 6.00 Build 0)  -->
<svg version="1.1" xmlns="http://www.w3.org/2000/svg" xmlns:xlink="http://www.w3.org/1999/xlink" x="0px" y="0px"
	 viewBox="0 0 618 579.5" style="enable-background:new 0 0 618 579.5;" xml:space="preserve">
<style type="text/css">
	.st0{opacity:0.28;fill:#F3D54D;}
	.st1{fill:#999999;}
	.st2{fill:none;}
	.st3{fill:#F3D54D;}
	.st4{fill:#AE771E;}
</style>
<g id="Background">
	<rect x="32" y="-177.5" class="st0" width="800" height="67"/>
	<g>
		<g>
			<path class="st1" d="M318.02,538.79v-0.26c-0.35,0.4-0.69,0.72-1.03,0.97c-0.34,0.25-0.71,0.44-1.1,0.57
				c-0.4,0.13-0.83,0.2-1.3,0.2c-0.62,0-1.2-0.13-1.72-0.39c-0.53-0.26-0.99-0.64-1.37-1.13c-0.39-0.49-0.68-1.06-0.88-1.72
				c-0.2-0.66-0.3-1.37-0.3-2.14c0-1.62,0.4-2.89,1.19-3.79c0.79-0.9,1.83-1.36,3.12-1.36c0.75,0,1.38,0.13,1.89,0.38
				c0.51,0.26,1.01,0.65,1.5,1.18v-3.83c0-0.53,0.11-0.93,0.32-1.21c0.21-0.27,0.51-0.41,0.91-0.41c0.39,0,0.69,0.12,0.91,0.38
				c0.21,0.25,0.32,0.62,0.32,1.11v11.44c0,0.49-0.11,0.86-0.34,1.11c-0.23,0.25-0.52,0.37-0.88,0.37c-0.35,0-0.65-0.13-0.88-0.38
				C318.14,539.63,318.02,539.26,318.02,538.79z M312.92,534.98c0,0.7,0.11,1.3,0.33,1.79c0.22,0.49,0.52,0.87,0.9,1.12
				c0.38,0.25,0.79,0.38,1.24,0.38c0.46,0,0.87-0.12,1.25-0.36c0.38-0.24,0.68-0.6,0.9-1.09c0.23-0.49,0.34-1.11,0.34-1.84
				c0-0.69-0.11-1.28-0.34-1.78c-0.22-0.5-0.53-0.88-0.91-1.14c-0.38-0.26-0.8-0.39-1.26-0.39c-0.47,0-0.9,0.13-1.27,0.4
				c-0.37,0.27-0.66,0.65-0.87,1.16C313.03,533.73,312.92,534.31,312.92,534.98z"/>
			<path class="st1" d="M329.46,535.63h-5.07c0.01,0.59,0.12,1.11,0.36,1.56c0.23,0.45,0.54,0.79,0.92,1.02
				c0.38,0.23,0.81,0.34,1.27,0.34c0.31,0,0.59-0.04,0.85-0.11c0.26-0.07,0.5-0.19,0.75-0.34c0.24-0.15,0.46-0.32,0.66-0.5
				c0.2-0.18,0.46-0.42,0.79-0.72c0.13-0.11,0.32-0.17,0.57-0.17c0.27,0,0.48,0.07,0.64,0.22c0.16,0.15,0.25,0.35,0.25,0.62
				c0,0.23-0.09,0.51-0.28,0.82c-0.19,0.31-0.46,0.61-0.83,0.9c-0.37,0.29-0.84,0.53-1.4,0.72c-0.56,0.19-1.2,0.29-1.93,0.29
				c-1.66,0-2.96-0.48-3.88-1.42c-0.92-0.95-1.39-2.24-1.39-3.87c0-0.77,0.11-1.48,0.34-2.13c0.23-0.66,0.56-1.22,1-1.69
				c0.44-0.47,0.98-0.83,1.62-1.08c0.64-0.25,1.35-0.37,2.13-0.37c1.01,0,1.88,0.21,2.61,0.64c0.73,0.43,1.27,0.98,1.63,1.66
				c0.36,0.68,0.54,1.37,0.54,2.07c0,0.65-0.19,1.08-0.56,1.27C330.66,535.54,330.14,535.63,329.46,535.63z M324.39,534.16h4.7
				c-0.06-0.89-0.3-1.55-0.72-1.99c-0.42-0.44-0.96-0.66-1.64-0.66c-0.65,0-1.18,0.22-1.59,0.67
				C324.73,532.63,324.48,533.29,324.39,534.16z"/>
			<path class="st1" d="M341.27,536.88c0,0.72-0.17,1.33-0.52,1.84c-0.35,0.51-0.86,0.9-1.54,1.16c-0.68,0.26-1.51,0.39-2.48,0.39
				c-0.93,0-1.73-0.14-2.39-0.43c-0.66-0.28-1.16-0.64-1.47-1.07c-0.32-0.43-0.48-0.86-0.48-1.29c0-0.29,0.1-0.53,0.3-0.73
				c0.2-0.2,0.46-0.3,0.77-0.3c0.27,0,0.48,0.07,0.63,0.2c0.15,0.13,0.29,0.32,0.42,0.56c0.27,0.46,0.58,0.81,0.96,1.04
				c0.37,0.23,0.87,0.34,1.52,0.34c0.52,0,0.94-0.12,1.28-0.35c0.33-0.23,0.5-0.5,0.5-0.79c0-0.46-0.17-0.79-0.52-1
				c-0.35-0.21-0.91-0.41-1.71-0.6c-0.89-0.22-1.62-0.45-2.18-0.7c-0.56-0.24-1.01-0.56-1.34-0.96c-0.34-0.4-0.5-0.89-0.5-1.47
				c0-0.52,0.15-1.01,0.47-1.47c0.31-0.46,0.77-0.83,1.37-1.11c0.6-0.28,1.33-0.41,2.19-0.41c0.67,0,1.27,0.07,1.81,0.21
				c0.54,0.14,0.98,0.33,1.34,0.56c0.36,0.23,0.63,0.49,0.82,0.78c0.19,0.29,0.28,0.56,0.28,0.84c0,0.3-0.1,0.54-0.3,0.73
				c-0.2,0.19-0.48,0.29-0.85,0.29c-0.27,0-0.49-0.08-0.68-0.23c-0.19-0.15-0.4-0.38-0.64-0.68c-0.2-0.25-0.43-0.46-0.69-0.61
				c-0.27-0.15-0.63-0.23-1.08-0.23c-0.47,0-0.86,0.1-1.17,0.3c-0.31,0.2-0.47,0.45-0.47,0.74c0,0.27,0.11,0.5,0.34,0.67
				c0.23,0.17,0.54,0.32,0.92,0.43c0.39,0.11,0.92,0.25,1.6,0.42c0.8,0.2,1.46,0.43,1.97,0.7c0.51,0.27,0.9,0.59,1.16,0.96
				C341.14,535.98,341.27,536.4,341.27,536.88z"/>
			<path class="st1" d="M343.92,528.52c-0.36,0-0.67-0.11-0.93-0.33c-0.26-0.22-0.38-0.53-0.38-0.94c0-0.37,0.13-0.67,0.39-0.91
				c0.26-0.24,0.57-0.36,0.92-0.36c0.34,0,0.63,0.11,0.89,0.32c0.26,0.22,0.39,0.53,0.39,0.94c0,0.4-0.13,0.71-0.38,0.94
				C344.57,528.41,344.27,528.52,343.92,528.52z M345.2,531.2v7.49c0,0.52-0.12,0.91-0.37,1.18c-0.25,0.27-0.56,0.4-0.94,0.4
				s-0.69-0.14-0.93-0.41c-0.24-0.27-0.36-0.66-0.36-1.17v-7.42c0-0.51,0.12-0.9,0.36-1.16c0.24-0.26,0.55-0.39,0.93-0.39
				s0.69,0.13,0.94,0.39C345.08,530.37,345.2,530.74,345.2,531.2z"/>
			<path class="st1" d="M356.56,531.63v7.53c0,0.86-0.09,1.6-0.28,2.22c-0.18,0.62-0.48,1.13-0.88,1.54
				c-0.41,0.4-0.94,0.71-1.59,0.9c-0.66,0.2-1.47,0.29-2.45,0.29c-0.89,0-1.69-0.12-2.39-0.38c-0.7-0.25-1.24-0.57-1.62-0.97
				c-0.38-0.4-0.57-0.8-0.57-1.22c0-0.32,0.11-0.58,0.32-0.77c0.21-0.2,0.48-0.3,0.78-0.3c0.38,0,0.71,0.17,1,0.5
				c0.14,0.17,0.28,0.34,0.43,0.52c0.15,0.17,0.31,0.32,0.49,0.45c0.18,0.12,0.4,0.21,0.65,0.27c0.25,0.06,0.55,0.09,0.87,0.09
				c0.67,0,1.19-0.09,1.56-0.28c0.37-0.19,0.63-0.45,0.78-0.78c0.15-0.33,0.24-0.69,0.26-1.08s0.04-1,0.06-1.85
				c-0.4,0.56-0.86,0.98-1.38,1.27c-0.52,0.29-1.14,0.44-1.87,0.44c-0.87,0-1.63-0.22-2.28-0.67c-0.65-0.44-1.15-1.06-1.5-1.86
				c-0.35-0.8-0.52-1.72-0.52-2.76c0-0.78,0.11-1.48,0.32-2.11c0.21-0.63,0.52-1.16,0.91-1.59c0.39-0.43,0.85-0.75,1.36-0.97
				c0.51-0.22,1.08-0.33,1.69-0.33c0.73,0,1.37,0.14,1.91,0.42c0.54,0.28,1.04,0.72,1.5,1.33v-0.35c0-0.45,0.11-0.8,0.33-1.04
				c0.22-0.25,0.51-0.37,0.86-0.37c0.5,0,0.83,0.16,1,0.49C356.48,530.54,356.56,531.01,356.56,531.63z M349.05,534.91
				c0,1.05,0.23,1.85,0.69,2.38c0.46,0.54,1.05,0.81,1.78,0.81c0.43,0,0.84-0.12,1.22-0.35c0.38-0.23,0.7-0.58,0.94-1.04
				c0.24-0.47,0.36-1.03,0.36-1.7c0-1.06-0.23-1.88-0.7-2.47c-0.47-0.59-1.08-0.88-1.84-0.88c-0.74,0-1.33,0.28-1.78,0.85
				C349.27,533.07,349.05,533.87,349.05,534.91z"/>
			<path class="st1" d="M360.68,531.16v0.31c0.46-0.6,0.95-1.04,1.5-1.33c0.54-0.28,1.16-0.42,1.87-0.42c0.68,0,1.29,0.15,1.83,0.45
				c0.54,0.3,0.94,0.72,1.21,1.26c0.17,0.32,0.28,0.66,0.33,1.03c0.05,0.37,0.08,0.84,0.08,1.41v4.82c0,0.52-0.12,0.91-0.36,1.18
				c-0.24,0.27-0.55,0.4-0.93,0.4c-0.39,0-0.7-0.14-0.94-0.41c-0.24-0.27-0.36-0.66-0.36-1.17v-4.32c0-0.85-0.12-1.51-0.36-1.96
				c-0.24-0.45-0.71-0.68-1.42-0.68c-0.46,0-0.88,0.14-1.26,0.41c-0.38,0.28-0.66,0.66-0.84,1.14c-0.13,0.39-0.19,1.11-0.19,2.16
				v3.25c0,0.53-0.12,0.92-0.37,1.18c-0.24,0.26-0.56,0.39-0.94,0.39c-0.37,0-0.68-0.14-0.92-0.41c-0.24-0.27-0.36-0.66-0.36-1.17
				v-7.49c0-0.49,0.11-0.86,0.32-1.11c0.22-0.24,0.51-0.37,0.88-0.37c0.23,0,0.43,0.05,0.62,0.16c0.18,0.11,0.33,0.27,0.44,0.48
				C360.63,530.59,360.68,530.85,360.68,531.16z"/>
			<path class="st1" d="M376.46,535.63h-5.07c0.01,0.59,0.12,1.11,0.36,1.56c0.23,0.45,0.54,0.79,0.92,1.02
				c0.38,0.23,0.81,0.34,1.27,0.34c0.31,0,0.59-0.04,0.85-0.11c0.26-0.07,0.5-0.19,0.75-0.34c0.24-0.15,0.46-0.32,0.67-0.5
				c0.2-0.18,0.46-0.42,0.79-0.72c0.13-0.11,0.32-0.17,0.57-0.17c0.27,0,0.48,0.07,0.65,0.22c0.16,0.15,0.25,0.35,0.25,0.62
				c0,0.23-0.09,0.51-0.28,0.82c-0.18,0.31-0.46,0.61-0.83,0.9c-0.37,0.29-0.83,0.53-1.4,0.72c-0.56,0.19-1.21,0.29-1.93,0.29
				c-1.67,0-2.96-0.48-3.89-1.42c-0.92-0.95-1.39-2.24-1.39-3.87c0-0.77,0.11-1.48,0.34-2.13c0.23-0.66,0.56-1.22,1-1.69
				c0.44-0.47,0.98-0.83,1.61-1.08c0.64-0.25,1.35-0.37,2.13-0.37c1.01,0,1.88,0.21,2.61,0.64c0.73,0.43,1.27,0.98,1.63,1.66
				c0.36,0.68,0.54,1.37,0.54,2.07c0,0.65-0.19,1.08-0.56,1.27C377.66,535.54,377.14,535.63,376.46,535.63z M371.39,534.16h4.7
				c-0.06-0.89-0.3-1.55-0.72-1.99c-0.42-0.44-0.96-0.66-1.64-0.66c-0.65,0-1.18,0.22-1.59,0.67
				C371.73,532.63,371.48,533.29,371.39,534.16z"/>
			<path class="st1" d="M387.03,538.79v-0.26c-0.35,0.4-0.69,0.72-1.03,0.97c-0.34,0.25-0.71,0.44-1.1,0.57
				c-0.39,0.13-0.83,0.2-1.3,0.2c-0.62,0-1.2-0.13-1.72-0.39c-0.53-0.26-0.99-0.64-1.37-1.13c-0.39-0.49-0.68-1.06-0.88-1.72
				c-0.2-0.66-0.3-1.37-0.3-2.14c0-1.62,0.4-2.89,1.19-3.79c0.79-0.9,1.83-1.36,3.12-1.36c0.75,0,1.38,0.13,1.89,0.38
				c0.51,0.26,1.01,0.65,1.5,1.18v-3.83c0-0.53,0.11-0.93,0.32-1.21c0.21-0.27,0.51-0.41,0.91-0.41c0.39,0,0.69,0.12,0.91,0.38
				c0.21,0.25,0.32,0.62,0.32,1.11v11.44c0,0.49-0.11,0.86-0.34,1.11c-0.23,0.25-0.52,0.37-0.88,0.37c-0.35,0-0.65-0.13-0.88-0.38
				C387.14,539.63,387.03,539.26,387.03,538.79z M381.93,534.98c0,0.7,0.11,1.3,0.33,1.79c0.22,0.49,0.52,0.87,0.9,1.12
				c0.38,0.25,0.79,0.38,1.24,0.38c0.46,0,0.87-0.12,1.25-0.36c0.38-0.24,0.68-0.6,0.9-1.09c0.23-0.49,0.34-1.11,0.34-1.84
				c0-0.69-0.11-1.28-0.34-1.78c-0.22-0.5-0.53-0.88-0.91-1.14c-0.38-0.26-0.8-0.39-1.26-0.39c-0.47,0-0.9,0.13-1.27,0.4
				c-0.37,0.27-0.66,0.65-0.87,1.16C382.03,533.73,381.93,534.31,381.93,534.98z"/>
			<path class="st1" d="M397.63,527.35v3.96c0.49-0.51,0.98-0.89,1.49-1.16c0.51-0.27,1.13-0.4,1.88-0.4c0.86,0,1.62,0.2,2.27,0.61
				c0.65,0.41,1.15,1,1.51,1.78c0.36,0.77,0.54,1.7,0.54,2.76c0,0.79-0.1,1.5-0.3,2.16c-0.2,0.66-0.49,1.22-0.87,1.7
				c-0.38,0.48-0.84,0.85-1.38,1.12c-0.54,0.26-1.14,0.39-1.79,0.39c-0.4,0-0.77-0.05-1.13-0.14c-0.35-0.09-0.65-0.22-0.9-0.38
				c-0.25-0.15-0.46-0.31-0.63-0.48c-0.17-0.16-0.4-0.41-0.69-0.74v0.26c0,0.49-0.12,0.86-0.35,1.11c-0.23,0.25-0.53,0.37-0.89,0.37
				c-0.37,0-0.66-0.12-0.88-0.37c-0.22-0.25-0.33-0.62-0.33-1.11v-11.32c0-0.53,0.11-0.92,0.32-1.19c0.21-0.27,0.51-0.4,0.89-0.4
				c0.4,0,0.71,0.13,0.92,0.38C397.52,526.51,397.63,526.88,397.63,527.35z M397.75,535.05c0,1.03,0.24,1.82,0.71,2.38
				c0.47,0.55,1.09,0.83,1.86,0.83c0.65,0,1.21-0.28,1.69-0.85c0.47-0.57,0.71-1.38,0.71-2.44c0-0.68-0.1-1.27-0.29-1.77
				c-0.2-0.49-0.47-0.88-0.84-1.14c-0.36-0.27-0.78-0.4-1.26-0.4c-0.49,0-0.93,0.13-1.32,0.4c-0.39,0.27-0.69,0.66-0.91,1.17
				C397.86,533.74,397.75,534.35,397.75,535.05z"/>
			<path class="st1" d="M408.67,540.59l0.24-0.58l-3.19-8.04c-0.2-0.46-0.29-0.8-0.29-1.01c0-0.22,0.06-0.43,0.17-0.62
				c0.11-0.19,0.27-0.34,0.47-0.46c0.2-0.12,0.41-0.17,0.62-0.17c0.37,0,0.65,0.12,0.85,0.36c0.19,0.24,0.36,0.58,0.5,1.02
				l2.19,6.38l2.08-5.94c0.16-0.48,0.31-0.86,0.45-1.13c0.13-0.27,0.27-0.46,0.42-0.55c0.15-0.1,0.36-0.14,0.63-0.14
				c0.2,0,0.38,0.05,0.57,0.16c0.18,0.1,0.32,0.25,0.42,0.42c0.1,0.18,0.15,0.36,0.15,0.56c-0.03,0.12-0.07,0.29-0.12,0.51
				c-0.06,0.22-0.13,0.45-0.21,0.67l-3.38,8.85c-0.29,0.78-0.58,1.39-0.86,1.83c-0.28,0.44-0.65,0.79-1.11,1.02
				c-0.46,0.24-1.08,0.36-1.86,0.36c-0.76,0-1.33-0.08-1.71-0.25c-0.38-0.17-0.57-0.47-0.57-0.9c0-0.3,0.09-0.53,0.27-0.69
				c0.18-0.16,0.45-0.24,0.8-0.24c0.14,0,0.28,0.02,0.41,0.06c0.16,0.04,0.31,0.06,0.43,0.06c0.3,0,0.53-0.04,0.7-0.13
				c0.17-0.09,0.32-0.24,0.46-0.46C408.34,541.34,408.49,541.02,408.67,540.59z"/>
		</g>
		<g>
			<path class="st1" d="M446.23,529.95h0.62v-0.78c0-0.81,0.1-1.46,0.31-1.94c0.2-0.48,0.56-0.83,1.05-1.04
				c0.49-0.22,1.16-0.33,2.02-0.33c1.52,0,2.27,0.37,2.27,1.11c0,0.24-0.08,0.44-0.24,0.62c-0.15,0.17-0.34,0.26-0.56,0.26
				c-0.1,0-0.28-0.02-0.53-0.06c-0.24-0.03-0.45-0.06-0.62-0.06c-0.47,0-0.77,0.14-0.91,0.42c-0.13,0.28-0.2,0.67-0.2,1.18v0.62
				h0.63c0.99,0,1.48,0.3,1.48,0.9c0,0.42-0.13,0.69-0.39,0.8c-0.26,0.11-0.62,0.17-1.09,0.17h-0.63v6.87c0,0.51-0.12,0.9-0.37,1.17
				c-0.24,0.27-0.55,0.41-0.94,0.41c-0.37,0-0.67-0.13-0.92-0.41c-0.24-0.27-0.36-0.66-0.36-1.17v-6.87h-0.71
				c-0.39,0-0.68-0.08-0.89-0.26c-0.21-0.17-0.31-0.4-0.31-0.68C444.93,530.26,445.37,529.95,446.23,529.95"/>
			<path class="st1" d="M454.72,536.52v2.17c0,0.52-0.13,0.92-0.37,1.18c-0.25,0.27-0.56,0.39-0.94,0.39c-0.38,0-0.69-0.13-0.93-0.4
				c-0.24-0.26-0.36-0.66-0.36-1.17v-7.22c0-1.17,0.42-1.75,1.26-1.75c0.43,0,0.74,0.13,0.93,0.41c0.19,0.27,0.29,0.67,0.32,1.21
				c0.31-0.53,0.62-0.93,0.95-1.21c0.33-0.27,0.76-0.41,1.31-0.41c0.55,0,1.07,0.13,1.59,0.41c0.52,0.27,0.77,0.64,0.77,1.08
				c0,0.31-0.11,0.58-0.33,0.78c-0.22,0.21-0.45,0.31-0.71,0.31c-0.1,0-0.33-0.06-0.69-0.18c-0.37-0.11-0.69-0.17-0.96-0.17
				c-0.38,0-0.69,0.1-0.93,0.3c-0.24,0.21-0.43,0.5-0.56,0.89c-0.13,0.39-0.22,0.87-0.27,1.4
				C454.75,535.08,454.72,535.75,454.72,536.52"/>
			<path class="st1" d="M466.64,535.63h-5.07c0.01,0.59,0.12,1.11,0.35,1.56c0.24,0.45,0.54,0.79,0.92,1.02
				c0.38,0.23,0.8,0.34,1.27,0.34c0.31,0,0.59-0.03,0.85-0.11c0.25-0.07,0.5-0.19,0.75-0.34c0.24-0.15,0.46-0.32,0.66-0.5
				c0.2-0.17,0.47-0.42,0.79-0.72c0.13-0.11,0.32-0.17,0.57-0.17c0.27,0,0.48,0.07,0.65,0.22c0.17,0.15,0.24,0.35,0.24,0.62
				c0,0.24-0.09,0.51-0.27,0.82c-0.19,0.32-0.46,0.62-0.84,0.91c-0.37,0.29-0.84,0.53-1.4,0.71c-0.56,0.19-1.21,0.29-1.93,0.29
				c-1.67,0-2.96-0.47-3.89-1.42c-0.92-0.95-1.39-2.24-1.39-3.87c0-0.77,0.12-1.48,0.35-2.13c0.22-0.66,0.56-1.22,1-1.69
				c0.44-0.47,0.97-0.83,1.61-1.08c0.64-0.25,1.35-0.37,2.13-0.37c1.01,0,1.88,0.21,2.61,0.65c0.72,0.42,1.27,0.98,1.63,1.65
				c0.36,0.68,0.54,1.37,0.54,2.07c0,0.65-0.19,1.07-0.56,1.27C467.85,535.53,467.32,535.63,466.64,535.63 M461.57,534.16h4.7
				c-0.06-0.88-0.3-1.55-0.71-1.99c-0.42-0.44-0.96-0.66-1.64-0.66c-0.65,0-1.18,0.22-1.59,0.67
				C461.91,532.63,461.66,533.28,461.57,534.16"/>
			<path class="st1" d="M477.43,535.63h-5.07c0.01,0.59,0.12,1.11,0.35,1.56c0.23,0.45,0.54,0.79,0.92,1.02
				c0.38,0.23,0.81,0.34,1.27,0.34c0.31,0,0.59-0.03,0.84-0.11c0.26-0.07,0.51-0.19,0.75-0.34c0.24-0.15,0.46-0.32,0.66-0.5
				c0.2-0.17,0.46-0.42,0.79-0.72c0.13-0.11,0.33-0.17,0.57-0.17c0.27,0,0.48,0.07,0.65,0.22c0.17,0.15,0.24,0.35,0.24,0.62
				c0,0.24-0.09,0.51-0.27,0.82c-0.18,0.32-0.46,0.62-0.83,0.91c-0.37,0.29-0.84,0.53-1.4,0.71c-0.56,0.19-1.21,0.29-1.93,0.29
				c-1.67,0-2.96-0.47-3.89-1.42c-0.92-0.95-1.39-2.24-1.39-3.87c0-0.77,0.12-1.48,0.35-2.13c0.23-0.66,0.56-1.22,1-1.69
				c0.44-0.47,0.97-0.83,1.61-1.08c0.64-0.25,1.35-0.37,2.13-0.37c1.01,0,1.88,0.21,2.61,0.65c0.72,0.42,1.27,0.98,1.62,1.65
				c0.36,0.68,0.54,1.37,0.54,2.07c0,0.65-0.19,1.07-0.56,1.27C478.63,535.53,478.11,535.63,477.43,535.63 M472.36,534.16h4.7
				c-0.06-0.88-0.3-1.55-0.71-1.99c-0.42-0.44-0.96-0.66-1.64-0.66c-0.65,0-1.18,0.22-1.59,0.67
				C472.7,532.63,472.44,533.28,472.36,534.16"/>
			<path class="st1" d="M483.11,531.18v0.31c0.49-0.6,0.99-1.04,1.52-1.32c0.52-0.28,1.12-0.43,1.78-0.43
				c0.79,0,1.54,0.21,2.21,0.62c0.67,0.41,1.2,1.02,1.59,1.81c0.39,0.79,0.59,1.73,0.59,2.81c0,0.8-0.11,1.53-0.34,2.2
				c-0.22,0.67-0.54,1.23-0.93,1.68c-0.39,0.45-0.86,0.8-1.39,1.05c-0.54,0.24-1.11,0.36-1.73,0.36c-0.74,0-1.36-0.15-1.87-0.45
				c-0.5-0.29-0.98-0.73-1.44-1.31v3.89c0,1.14-0.42,1.71-1.24,1.71c-0.49,0-0.81-0.15-0.97-0.44c-0.15-0.3-0.23-0.72-0.23-1.29
				v-11.19c0-0.5,0.11-0.86,0.32-1.11c0.21-0.24,0.51-0.36,0.88-0.36c0.37,0,0.67,0.12,0.9,0.37
				C483,530.35,483.11,530.7,483.11,531.18 M488.2,534.95c0-0.68-0.11-1.27-0.31-1.76c-0.21-0.49-0.5-0.87-0.87-1.13
				c-0.37-0.26-0.78-0.4-1.23-0.4c-0.71,0-1.32,0.28-1.81,0.84c-0.49,0.57-0.74,1.4-0.74,2.49c0,1.03,0.24,1.83,0.74,2.41
				c0.49,0.57,1.09,0.86,1.81,0.86c0.43,0,0.83-0.13,1.2-0.37c0.37-0.25,0.66-0.63,0.88-1.13
				C488.08,536.26,488.2,535.65,488.2,534.95"/>
			<path class="st1" d="M493.41,528.51c-0.36,0-0.67-0.11-0.92-0.33c-0.26-0.22-0.39-0.53-0.39-0.94c0-0.37,0.13-0.67,0.4-0.91
				c0.26-0.23,0.57-0.36,0.91-0.36c0.34,0,0.64,0.11,0.89,0.32c0.26,0.22,0.39,0.53,0.39,0.95c0,0.4-0.13,0.71-0.38,0.94
				C494.06,528.4,493.76,528.51,493.41,528.51 M494.7,531.19v7.5c0,0.52-0.12,0.91-0.37,1.17c-0.25,0.27-0.56,0.4-0.94,0.4
				c-0.38,0-0.68-0.13-0.93-0.41c-0.23-0.28-0.36-0.67-0.36-1.17v-7.43c0-0.51,0.12-0.89,0.36-1.15c0.24-0.26,0.55-0.39,0.93-0.39
				c0.38,0,0.69,0.13,0.94,0.39C494.57,530.37,494.7,530.73,494.7,531.19"/>
			<path class="st1" d="M503.06,539.08l-2.28-3.77l-1.41,1.33v2.07c0,0.5-0.13,0.88-0.4,1.15c-0.26,0.27-0.57,0.41-0.91,0.41
				c-0.4,0-0.71-0.13-0.94-0.4c-0.23-0.26-0.34-0.66-0.34-1.17v-11.06c0-0.57,0.11-1.01,0.33-1.31c0.22-0.3,0.54-0.45,0.95-0.45
				c0.4,0,0.71,0.14,0.95,0.41c0.23,0.27,0.35,0.67,0.35,1.2v6.29l2.92-3.06c0.36-0.38,0.63-0.64,0.83-0.78
				c0.19-0.14,0.42-0.21,0.69-0.21c0.33,0,0.59,0.1,0.82,0.31c0.21,0.21,0.32,0.47,0.32,0.77c0,0.38-0.35,0.89-1.05,1.52l-1.38,1.26
				l2.66,4.18c0.19,0.31,0.34,0.54,0.42,0.71c0.08,0.16,0.13,0.32,0.13,0.46c0,0.41-0.11,0.73-0.34,0.98
				c-0.22,0.24-0.52,0.35-0.89,0.35c-0.32,0-0.56-0.08-0.73-0.26C503.58,539.84,503.35,539.53,503.06,539.08"/>
			<path class="st1" d="M508.69,540.27c-0.39,0-0.73-0.13-1.01-0.38c-0.28-0.25-0.43-0.61-0.43-1.06c0-0.39,0.14-0.72,0.41-1
				c0.27-0.28,0.61-0.42,1.01-0.42c0.4,0,0.74,0.14,1.02,0.41c0.28,0.28,0.42,0.61,0.42,1c0,0.45-0.14,0.81-0.42,1.06
				C509.4,540.14,509.07,540.27,508.69,540.27"/>
			<path class="st1" d="M521.59,537.06c0,0.32-0.1,0.67-0.29,1.03c-0.19,0.37-0.49,0.72-0.89,1.05c-0.39,0.33-0.89,0.6-1.5,0.8
				c-0.6,0.2-1.28,0.31-2.03,0.31c-1.61,0-2.86-0.47-3.76-1.4c-0.9-0.94-1.35-2.19-1.35-3.76c0-1.07,0.2-2.01,0.62-2.82
				c0.41-0.81,1-1.45,1.78-1.89c0.78-0.45,1.72-0.67,2.79-0.67c0.67,0,1.29,0.1,1.85,0.29c0.56,0.2,1.03,0.45,1.42,0.76
				c0.39,0.31,0.69,0.64,0.89,0.99c0.21,0.35,0.31,0.68,0.31,0.99c0,0.31-0.11,0.57-0.34,0.79c-0.24,0.21-0.52,0.32-0.84,0.32
				c-0.22,0-0.4-0.06-0.54-0.17c-0.14-0.11-0.3-0.29-0.48-0.54c-0.32-0.48-0.65-0.84-1-1.08c-0.34-0.24-0.78-0.36-1.31-0.36
				c-0.76,0-1.38,0.3-1.85,0.9c-0.47,0.6-0.7,1.42-0.7,2.45c0,0.49,0.06,0.94,0.18,1.35c0.12,0.41,0.29,0.76,0.52,1.04
				c0.23,0.29,0.5,0.5,0.83,0.65c0.32,0.15,0.68,0.23,1.06,0.23c0.52,0,0.97-0.12,1.34-0.36c0.38-0.24,0.7-0.61,0.99-1.1
				c0.16-0.29,0.33-0.52,0.51-0.68c0.18-0.16,0.41-0.25,0.68-0.25c0.32,0,0.58,0.12,0.79,0.36
				C521.48,536.53,521.59,536.79,521.59,537.06"/>
			<path class="st1" d="M532.78,535c0,0.77-0.12,1.48-0.36,2.14c-0.25,0.65-0.59,1.21-1.05,1.68c-0.46,0.47-1,0.83-1.63,1.08
				c-0.64,0.25-1.35,0.38-2.14,0.38c-0.79,0-1.49-0.13-2.12-0.38c-0.62-0.25-1.17-0.61-1.63-1.08c-0.46-0.48-0.81-1.03-1.05-1.68
				c-0.23-0.64-0.35-1.35-0.35-2.13c0-0.79,0.12-1.51,0.36-2.16c0.24-0.65,0.59-1.21,1.04-1.67c0.45-0.46,0.99-0.82,1.63-1.07
				c0.64-0.25,1.35-0.37,2.12-0.37c0.78,0,1.5,0.12,2.14,0.38c0.64,0.25,1.18,0.61,1.64,1.08c0.46,0.47,0.8,1.03,1.04,1.67
				C532.66,533.5,532.78,534.21,532.78,535 M530.18,535c0-1.06-0.23-1.88-0.7-2.47c-0.46-0.6-1.09-0.89-1.87-0.89
				c-0.51,0-0.96,0.13-1.34,0.39c-0.39,0.26-0.68,0.65-0.89,1.16c-0.21,0.51-0.32,1.11-0.32,1.8c0,0.68,0.1,1.27,0.31,1.77
				c0.21,0.51,0.5,0.9,0.89,1.17c0.39,0.27,0.83,0.4,1.35,0.4c0.78,0,1.41-0.3,1.87-0.89C529.94,536.86,530.18,536.04,530.18,535"/>
			<path class="st1" d="M542.67,535.19v3.45c0,0.55-0.12,0.95-0.37,1.23c-0.25,0.27-0.57,0.41-0.98,0.41
				c-0.39,0-0.71-0.14-0.95-0.41c-0.25-0.28-0.37-0.68-0.37-1.23v-4.13c0-0.65-0.02-1.16-0.06-1.52c-0.05-0.35-0.17-0.66-0.36-0.88
				c-0.2-0.24-0.51-0.35-0.93-0.35c-0.85,0-1.41,0.29-1.68,0.88c-0.27,0.58-0.41,1.41-0.41,2.51v3.5c0,0.54-0.12,0.95-0.36,1.22
				c-0.25,0.27-0.57,0.41-0.96,0.41c-0.4,0-0.72-0.14-0.97-0.41c-0.25-0.28-0.38-0.69-0.38-1.22v-7.42c0-0.49,0.11-0.86,0.34-1.11
				c0.23-0.26,0.53-0.38,0.89-0.38c0.36,0,0.65,0.12,0.89,0.36c0.24,0.24,0.35,0.57,0.35,0.98v0.25c0.45-0.54,0.93-0.93,1.44-1.18
				c0.52-0.26,1.08-0.39,1.71-0.39c0.65,0,1.21,0.13,1.68,0.39c0.47,0.26,0.85,0.66,1.16,1.18c0.44-0.53,0.91-0.92,1.41-1.18
				c0.5-0.26,1.05-0.39,1.66-0.39c0.71,0,1.32,0.14,1.83,0.42c0.51,0.28,0.89,0.68,1.15,1.2c0.22,0.47,0.33,1.21,0.33,2.22v5.06
				c0,0.55-0.12,0.95-0.37,1.23c-0.25,0.27-0.58,0.41-0.98,0.41c-0.39,0-0.71-0.14-0.96-0.41c-0.25-0.28-0.38-0.69-0.38-1.22v-4.36
				c0-0.56-0.02-1-0.07-1.34c-0.05-0.34-0.18-0.62-0.38-0.85c-0.21-0.23-0.53-0.34-0.95-0.34c-0.34,0-0.67,0.11-0.97,0.31
				c-0.31,0.2-0.55,0.48-0.72,0.81C542.77,533.3,542.67,534.08,542.67,535.19"/>
		</g>
		<g>
			<path class="st1" d="M421.97,534.37c0,0,0-0.01,0-0.02C421.96,534.36,421.96,534.36,421.97,534.37z"/>
			<path class="st1" d="M422.1,535.2C422.1,535.2,422.1,535.2,422.1,535.2c-0.05-0.24-0.09-0.47-0.12-0.7
				C422.01,534.73,422.05,534.96,422.1,535.2z"/>
			<path class="st1" d="M422.96,537.6c-0.01-0.01-0.01-0.02-0.02-0.03C422.95,537.58,422.95,537.59,422.96,537.6z"/>
			<path class="st1" d="M422.87,537.44c-0.02-0.04-0.04-0.09-0.07-0.13C422.83,537.36,422.85,537.4,422.87,537.44z"/>
			<path class="st1" d="M422.34,536.12c0.13,0.4,0.28,0.79,0.46,1.16C422.62,536.9,422.47,536.52,422.34,536.12
				C422.34,536.12,422.34,536.12,422.34,536.12z"/>
			<path class="st1" d="M432,524.43c0.5,0,0.87,0.04,1.29,0.11l0.12-0.76c0,0-1.17-0.36-2.71-0.23l-0.12-0.42
				c0.48-0.1,0.84-0.53,0.84-1.03c0-0.58-0.47-1.05-1.06-1.05s-1.06,0.47-1.06,1.05c0,0.51,0.36,0.93,0.84,1.03l0.13,0.46
				c-1.63,0.22-2.94,0.86-2.94,0.86l0.23,0.71c0.99-0.33,1.85-0.53,2.62-0.61C430.96,524.47,431.54,524.43,432,524.43z"/>
			<path class="st1" d="M422.94,528.29L422.94,528.29c0.04-0.06,0.08-0.1,0.12-0.15l-0.31-0.23l-0.49-0.36
				c-0.03,0.04-0.79,0.74-1.4,2.05c-0.03-0.04-0.06-0.08-0.09-0.12c-0.18-0.2-0.44-0.3-0.76-0.29c0,0-0.01,0-0.01,0
				c-0.2,0-0.34-0.07-0.43-0.15c0.09-0.11,0.14-0.26,0.14-0.41c0-0.37-0.3-0.67-0.67-0.67c-0.37,0-0.67,0.3-0.67,0.67
				c0,0.37,0.3,0.67,0.67,0.67c0.06,0,0.11-0.01,0.17-0.02c0.16,0.18,0.43,0.34,0.81,0.33c0.2,0,0.34,0.05,0.44,0.16
				c0.11,0.12,0.15,0.3,0.16,0.43c0,0,0,0,0,0c-0.44,1.19-0.31,2.67-0.31,2.67l1.06,0.04c0.02-0.54,0.1-1.48,0.37-2.23
				C422.25,529.23,422.91,528.33,422.94,528.29z"/>
			<path class="st1" d="M441.2,525.32c-0.37,0-0.67,0.3-0.67,0.67c0,0.06,0.01,0.11,0.02,0.17c-0.18,0.17-0.34,0.43-0.34,0.81
				c0,0.2-0.05,0.34-0.15,0.44c-0.08,0.08-0.19,0.12-0.3,0.14c-0.79-1.1-1.76-1.78-1.76-1.78l-0.76,0.81
				c0.57,0.52,1.16,1.17,1.73,1.99c0.39,0.56,0.8,1.29,1.14,2.01l1.02-0.49c0,0-0.47-1.16-1.13-2.19c0.11-0.04,0.23-0.1,0.33-0.19
				c0.2-0.18,0.3-0.44,0.29-0.76c0-0.21,0.07-0.35,0.15-0.44c0.11,0.09,0.26,0.14,0.41,0.14c0.37,0,0.67-0.3,0.67-0.67
				C441.87,525.61,441.57,525.32,441.2,525.32z"/>
			<path class="st1" d="M438.55,534.52c-1.41,0.69-3.73,1.59-6.78,2.02c-1.2,0.17-2.36,0.23-3.43,0.23c-1.39,0-2.62-0.1-3.56-0.22
				c-1.08-0.14-1.92-0.3-2.43-0.42c0.12,0.39,0.27,0.78,0.45,1.16c0,0.01,0.01,0.02,0.01,0.03c0.02,0.04,0.04,0.09,0.07,0.13
				c0.02,0.04,0.04,0.09,0.06,0.13c0.01,0.01,0.01,0.02,0.02,0.03c0.3,0.57,0.67,1.09,1.08,1.55c1.44,1.58,2.91,1.82,2.92,1.83
				l0.02,0l0.02,0.01c0.01,0,1.31,0.42,3.29,0.42c1.95,0,3.85-0.39,5.67-1.17c1.35-0.69,2.62-1.74,3.25-2.67
				c0.49-0.72,0.84-1.49,1.05-2.29c0.11-0.43,0.2-1.11,0.15-1.83C440.02,533.72,439.39,534.1,438.55,534.52z"/>
			<path class="st1" d="M423.39,528.62c-0.04,0.06-0.65,0.92-1.14,2.25c-0.36,1-0.35,2.44-0.35,2.46v0c0,0.34,0.02,0.68,0.06,1.01
				c0,0.01,0,0.01,0,0.02c0,0.04,0.01,0.08,0.02,0.13c0.03,0.23,0.07,0.47,0.12,0.7c0.7,0.18,4.88,1.15,9.55,0.5
				c2.93-0.41,5.15-1.27,6.5-1.93c1.12-0.54,1.84-1.04,2.12-1.24c-0.28-1.03-1.04-2.64-1.74-3.65c-2-2.87-4.17-3.6-5.28-3.78
				c-0.42-0.07-0.76-0.11-1.24-0.11c-0.45,0-1,0.04-1.74,0.11c-0.74,0.08-1.57,0.27-2.53,0.6c-1.35,0.45-2.57,1.16-3.53,2.05
				l-0.03,0.03C424.03,527.91,423.73,528.19,423.39,528.62z M435.66,527.96c0.96,0,1.74,0.78,1.74,1.74c0,0.96-0.78,1.74-1.74,1.74
				c-0.96,0-1.74-0.78-1.74-1.74C433.92,528.74,434.7,527.96,435.66,527.96z M427.42,527.89c1.56,0,2.82,1.26,2.82,2.82
				c0,1.56-1.26,2.81-2.82,2.81c-1.55,0-2.82-1.26-2.82-2.81C424.6,529.15,425.86,527.89,427.42,527.89z"/>
		</g>
	</g>
</g>
<g id="Capa_1">
	<g>
		<path class="st2" d="M458.46,511.48c0.77-1.33,1.26-3.4,1.33-5.69c0.21-6.31-0.64-15-1.4-21.19c-6.01,7.84-13.57,9.28-17.62,10.05
			c-0.73,0.14-1.64,0.31-1.96,0.43c-1.23,0.85-2.24,1.92-2.98,3.2c-3.15,5.4-0.64,12.75,5.6,16.39S455.31,516.88,458.46,511.48z"/>
		<path class="st2" d="M434.58,517.19c-0.88,0.49-2.19,1.29-3.71,2.41l11.48,6.7c0.23-1.87,0.28-3.41,0.27-4.42L434.58,517.19z"/>
		<path class="st3" d="M439.99,535.65c0.52-1.3,0.94-2.58,1.27-3.81l-14.68-8.56c-0.9,0.9-1.81,1.89-2.69,2.98
			c-6.63,8.25-8.88,18.31-6.69,29.95C428.41,552.4,436.07,545.49,439.99,535.65z"/>
		<path class="st4" d="M446.93,531.16c0-0.01,0.01-0.02,0.01-0.03c0.87-3.91,1.03-7.18,1.03-9.13c6.16,0.24,12.02-2.54,15.1-7.82
			c1.24-2.13,1.95-4.96,2.06-8.2c0.37-11.32-2.37-29.07-2.49-29.82c-0.18-1.17-1.12-2.08-2.29-2.24c-1.18-0.15-2.31,0.49-2.79,1.58
			c-5.02,11.49-13.01,13.01-17.78,13.92c-1.64,0.31-2.83,0.54-3.78,1.15c-0.05,0.03-0.09,0.06-0.14,0.09
			c-1.91,1.3-3.47,2.97-4.63,4.95c-3.08,5.28-2.62,11.75,0.62,17c-1.7,0.96-4.46,2.71-7.44,5.39c-0.01,0.01-0.03,0.02-0.04,0.03
			c-1.48,1.34-3.01,2.9-4.49,4.71c-5.72,7.03-11.64,19.19-7.34,37.26c0.01,0.04,0.02,0.09,0.03,0.13l0.07,0.25
			c0.2,0.68,0.65,1.23,1.22,1.56c0.57,0.33,1.26,0.45,1.95,0.29l0.26-0.06c0.04-0.01,0.09-0.02,0.13-0.03
			c17.84-5.15,25.52-16.29,28.82-24.73C445.89,535.22,446.5,533.11,446.93,531.16z M423.89,526.27c0.88-1.09,1.79-2.09,2.69-2.98
			l14.68,8.56c-0.34,1.23-0.76,2.51-1.27,3.81c-3.91,9.83-11.57,16.74-22.78,20.57C415.02,544.58,417.26,534.51,423.89,526.27z
			 M430.87,519.6c1.52-1.12,2.83-1.92,3.71-2.41l8.05,4.69c0,1.01-0.04,2.54-0.27,4.42L430.87,519.6z M435.84,498.29
			c0.74-1.27,1.74-2.35,2.98-3.2c0.32-0.12,1.22-0.3,1.96-0.43c4.05-0.77,11.62-2.21,17.62-10.05c0.75,6.19,1.6,14.89,1.4,21.19
			c-0.08,2.29-0.56,4.36-1.33,5.69c-3.15,5.4-10.78,6.83-17.02,3.19S432.69,503.68,435.84,498.29z"/>
	</g>
	<g>
		<g>
			<rect x="546.91" y="484.23" class="st2" width="45.14" height="25.57"/>
			<path class="st2" d="M611.88,520.65c0-3.04-2.47-5.52-5.52-5.52h-73.77c-3.04,0-5.52,2.47-5.52,5.52v1.77h84.8V520.65z
				 M607.17,520.67c-0.5,0.5-1.19,0.78-1.89,0.78c-0.7,0-1.39-0.28-1.89-0.78c-0.5-0.5-0.78-1.19-0.78-1.89
				c0-0.7,0.28-1.39,0.78-1.89c0.5-0.5,1.19-0.78,1.89-0.78c0.7,0,1.39,0.28,1.89,0.78c0.5,0.5,0.78,1.18,0.78,1.89
				C607.95,519.48,607.67,520.17,607.17,520.67z"/>
			<path class="st2" d="M546.39,564.26h46.17v-28.48h-46.17V564.26z M553.32,541.65h31.25c1.47,0,2.67,1.19,2.67,2.67
				c0,1.47-1.2,2.67-2.67,2.67h-31.25c-1.47,0-2.67-1.19-2.67-2.67C550.65,542.85,551.85,541.65,553.32,541.65z M553.32,553.06h14.6
				c1.47,0,2.67,1.2,2.67,2.67s-1.19,2.67-2.67,2.67h-14.6c-1.47,0-2.67-1.2-2.67-2.67S551.85,553.06,553.32,553.06z"/>
			<path class="st3" d="M527.07,549.35c0,3.04,2.47,5.52,5.52,5.52h8.46v-21.75c0-1.47,1.19-2.67,2.67-2.67h51.51
				c1.47,0,2.67,1.19,2.67,2.67v21.75h8.46c3.04,0,5.52-2.47,5.52-5.52v-21.59h-84.8V549.35z"/>
			<path class="st4" d="M606.36,509.8h-8.98v-28.24c0-1.47-1.19-2.67-2.67-2.67h-50.48c-1.47,0-2.67,1.19-2.67,2.67v28.24h-8.98
				c-5.99,0-10.85,4.87-10.85,10.85v28.7c0,5.99,4.87,10.85,10.85,10.85h8.46v6.73c0,1.47,1.19,2.67,2.67,2.67h51.51
				c1.47,0,2.67-1.2,2.67-2.67v-6.73h8.46c5.99,0,10.85-4.87,10.85-10.85v-28.7C617.21,514.67,612.35,509.8,606.36,509.8z
				 M611.88,549.35c0,3.04-2.47,5.52-5.52,5.52h-8.46v-21.75c0-1.47-1.19-2.67-2.67-2.67h-51.51c-1.47,0-2.67,1.19-2.67,2.67v21.75
				h-8.46c-3.04,0-5.52-2.47-5.52-5.52v-21.59h84.8V549.35z M546.91,484.23h45.14v25.57h-45.14V484.23z M527.07,520.65
				c0-3.04,2.47-5.52,5.52-5.52h73.77c3.04,0,5.52,2.47,5.52,5.52v1.77h-84.8V520.65z M592.56,564.26h-46.17v-28.48h46.17V564.26z"
				/>
			<path class="st4" d="M605.29,516.11c-0.7,0-1.39,0.28-1.89,0.78c-0.5,0.5-0.78,1.18-0.78,1.89c0,0.7,0.28,1.39,0.78,1.89
				c0.5,0.5,1.19,0.78,1.89,0.78c0.7,0,1.39-0.28,1.89-0.78c0.5-0.5,0.78-1.19,0.78-1.89c0-0.7-0.28-1.39-0.78-1.89
				C606.68,516.39,605.99,516.11,605.29,516.11z"/>
			<path class="st4" d="M553.32,546.99h31.25c1.47,0,2.67-1.19,2.67-2.67c0-1.47-1.2-2.67-2.67-2.67h-31.25
				c-1.47,0-2.67,1.19-2.67,2.67C550.65,545.8,551.85,546.99,553.32,546.99z"/>
			<path class="st4" d="M553.32,558.4h14.6c1.47,0,2.67-1.2,2.67-2.67s-1.19-2.67-2.67-2.67h-14.6c-1.47,0-2.67,1.2-2.67,2.67
				S551.85,558.4,553.32,558.4z"/>
		</g>
	</g>
	<g>
		<g>
			<path class="st3" d="M295.36,543.97h2.23c1.47,0,2.67,1.2,2.67,2.67v8.23h16.8v-8.23c0-1.47,1.2-2.67,2.67-2.67h2.23l-13.3-9.75
				L295.36,543.97z"/>
			<path class="st4" d="M336,512.95c-0.27,0-0.54,0.01-0.82,0.01c-1.34-13.46-12.72-24-26.53-24c-13.8,0-25.19,10.55-26.53,24
				c-0.27-0.01-0.55-0.01-0.82-0.01c-12.66,0-22.96,10.3-22.96,22.96c0,12.66,10.3,22.96,22.96,22.96c1.47,0,2.67-1.19,2.67-2.67
				c0-1.47-1.19-2.67-2.67-2.67c-9.72,0-17.63-7.91-17.63-17.63c0-9.72,7.91-17.63,17.63-17.63c0.97,0,1.96,0.08,2.92,0.24
				c0.78,0.13,1.58-0.09,2.18-0.61c0.6-0.52,0.94-1.27,0.93-2.06l0-0.1c0-0.05,0-0.1,0-0.14c0-11.76,9.56-21.32,21.32-21.32
				c11.76,0,21.32,9.56,21.32,21.32c0,0.05,0,0.09,0,0.14l0,0.11c-0.01,0.79,0.33,1.54,0.93,2.06c0.6,0.51,1.4,0.74,2.18,0.61
				c0.96-0.16,1.95-0.24,2.92-0.24c9.72,0,17.63,7.91,17.63,17.63c0,9.72-7.91,17.63-17.63,17.63c-1.47,0-2.67,1.2-2.67,2.67
				c0,1.47,1.2,2.67,2.67,2.67c12.66,0,22.96-10.3,22.96-22.96C358.96,523.25,348.66,512.95,336,512.95z"/>
			<path class="st4" d="M295.91,514.67c0-6.33,5.15-11.48,11.48-11.48c1.47,0,2.67-1.19,2.67-2.67c0-1.47-1.19-2.67-2.67-2.67
				c-9.27,0-16.81,7.54-16.81,16.81c0,1.47,1.19,2.67,2.67,2.67C294.72,517.34,295.91,516.14,295.91,514.67z"/>
			<path class="st4" d="M331.6,544.41l-21.36-15.65c-0.94-0.69-2.22-0.69-3.15,0l-21.46,15.72c-0.93,0.68-1.32,1.89-0.96,2.98
				c0.36,1.1,1.38,1.84,2.54,1.84h7.72v8.23c0,1.47,1.2,2.67,2.67,2.67h22.14c1.47,0,2.67-1.19,2.67-2.67v-8.23h7.72c0,0,0,0,0,0
				c1.47,0,2.67-1.19,2.67-2.67C332.79,545.71,332.32,544.89,331.6,544.41z M319.73,543.97c-1.47,0-2.67,1.2-2.67,2.67v8.23h-16.8
				v-8.23c0-1.47-1.19-2.67-2.67-2.67h-2.23l13.3-9.75l13.3,9.75H319.73z"/>
		</g>
	</g>
	<g>
		<g>
			<path class="st3" d="M188.73,541.82v-8.23h-16.8v8.23c0,1.47-1.19,2.67-2.67,2.67h-2.23l13.3,9.75l13.3-9.75h-2.23
				C189.93,544.49,188.73,543.29,188.73,541.82z"/>
			<path class="st4" d="M207.68,512.95c-0.27,0-0.54,0-0.82,0.01c-1.34-13.46-12.72-24-26.53-24c-13.8,0-25.19,10.55-26.53,24
				c-0.27-0.01-0.55-0.01-0.82-0.01c-12.66,0-22.96,10.3-22.96,22.96c0,12.66,10.3,22.96,22.96,22.96c1.47,0,2.67-1.19,2.67-2.67
				c0-1.47-1.2-2.67-2.67-2.67c-9.72,0-17.63-7.91-17.63-17.63c0-9.72,7.91-17.63,17.63-17.63c0.97,0,1.96,0.08,2.92,0.24
				c0.78,0.13,1.58-0.09,2.18-0.61c0.6-0.52,0.94-1.27,0.93-2.06l0-0.1c0-0.05,0-0.1,0-0.14c0-11.76,9.56-21.32,21.32-21.32
				c11.76,0,21.32,9.56,21.32,21.32c0,0.05,0,0.09,0,0.14l0,0.11c-0.01,0.79,0.33,1.54,0.93,2.06c0.6,0.51,1.4,0.74,2.18,0.61
				c0.96-0.16,1.95-0.24,2.92-0.24c9.72,0,17.63,7.91,17.63,17.63c0,9.72-7.91,17.63-17.63,17.63c-1.47,0-2.67,1.2-2.67,2.67
				c0,1.47,1.2,2.67,2.67,2.67c12.66,0,22.96-10.3,22.96-22.96C230.64,523.25,220.34,512.95,207.68,512.95z"/>
			<path class="st4" d="M167.59,514.67c0-6.33,5.15-11.48,11.48-11.48c1.47,0,2.67-1.19,2.67-2.67c0-1.47-1.19-2.67-2.67-2.67
				c-9.27,0-16.81,7.54-16.81,16.81c0,1.47,1.19,2.67,2.67,2.67C166.39,517.34,167.59,516.14,167.59,514.67z"/>
			<path class="st4" d="M201.79,539.15h-7.72v-8.23c0-1.47-1.19-2.67-2.67-2.67h-22.14c-1.47,0-2.67,1.19-2.67,2.67v8.23h-7.72
				c-1.15,0-2.18,0.74-2.54,1.84c-0.36,1.1,0.03,2.3,0.96,2.98l21.46,15.72c0.47,0.34,1.02,0.52,1.58,0.52
				c0.55,0,1.11-0.17,1.58-0.52l21.46-15.72c0.93-0.68,1.32-1.89,0.96-2.98C203.97,539.89,202.95,539.15,201.79,539.15z
				 M180.33,554.23l-13.3-9.75h2.23c1.47,0,2.67-1.19,2.67-2.67v-8.23h16.8v8.23c0,1.47,1.19,2.67,2.67,2.67h2.23L180.33,554.23z"/>
		</g>
	</g>
	<g>
		<g>
			<path class="st4" d="M77.35,512.95c-0.27,0-0.54,0-0.82,0.01c-1.34-13.46-12.72-24-26.53-24c-13.8,0-25.19,10.55-26.53,24
				c-0.27-0.01-0.55-0.01-0.82-0.01c-12.66,0-22.96,10.3-22.96,22.96c0,12.66,10.3,22.96,22.96,22.96h54.69
				c12.66,0,22.96-10.3,22.96-22.96C100.32,523.25,90.01,512.95,77.35,512.95z M77.35,553.54H22.66c-9.72,0-17.63-7.91-17.63-17.63
				c0-9.72,7.91-17.63,17.63-17.63c0.97,0,1.96,0.08,2.92,0.24c0.78,0.13,1.58-0.09,2.18-0.61c0.6-0.51,0.94-1.27,0.93-2.06l0-0.1
				c0-0.05,0-0.09,0-0.14c0-11.76,9.56-21.32,21.32-21.32c11.76,0,21.32,9.56,21.32,21.32c0,0.05,0,0.09,0,0.14l0,0.1
				c-0.01,0.79,0.33,1.54,0.93,2.06c0.6,0.51,1.4,0.74,2.18,0.61c0.96-0.16,1.95-0.24,2.92-0.24c9.72,0,17.63,7.91,17.63,17.63
				C94.98,545.63,87.07,553.54,77.35,553.54z"/>
			<path class="st4" d="M48.74,497.86c-9.27,0-16.81,7.54-16.81,16.81c0,1.47,1.2,2.67,2.67,2.67c1.47,0,2.67-1.19,2.67-2.67
				c0-6.33,5.15-11.48,11.48-11.48c1.47,0,2.67-1.19,2.67-2.67C51.41,499.05,50.21,497.86,48.74,497.86z"/>
		</g>
	</g>
	<g>
		<g>
			<path class="st2" d="M557.02,395.78c-3.75,0-6.79,3.05-6.79,6.79c0,3.75,3.05,6.79,6.79,6.79c3.75,0,6.79-3.05,6.79-6.79
				C563.81,398.83,560.76,395.78,557.02,395.78z"/>
			<circle class="st2" cx="605.68" cy="383.65" r="6.79"/>
			
				<ellipse transform="matrix(0.0252 -0.9997 0.9997 0.0252 76.1736 961.1877)" class="st3" cx="530.93" cy="441.54" rx="6.79" ry="6.79"/>
			<path class="st3" d="M590.05,426.24c0-3.75-3.05-6.79-6.79-6.79c-3.75,0-6.79,3.05-6.79,6.79c0,3.75,3.05,6.79,6.79,6.79
				C587.01,433.04,590.05,429.99,590.05,426.24z"/>
			<path class="st4" d="M605.68,371.52c-6.69,0-12.13,5.44-12.13,12.13c0,3.69,1.66,6.99,4.26,9.22l-11.4,21.66
				c-1.01-0.27-2.06-0.42-3.15-0.42c-2.6,0-5.02,0.83-6.99,2.23l-8.68-7.83c0.99-1.76,1.56-3.78,1.56-5.94
				c0-6.69-5.44-12.13-12.13-12.13c-6.69,0-12.13,5.44-12.13,12.13c0,3.23,1.27,6.17,3.34,8.34l-12.92,19.3
				c-1.36-0.52-2.83-0.82-4.36-0.82c-6.69,0-12.13,5.44-12.13,12.13c0,6.69,5.44,12.13,12.13,12.13c6.69,0,12.13-5.44,12.13-12.13
				c0-3.23-1.27-6.17-3.34-8.34l12.92-19.3c1.36,0.52,2.83,0.82,4.36,0.82c2.6,0,5.02-0.83,6.99-2.23l8.67,7.83
				c-0.99,1.76-1.56,3.78-1.56,5.94c0,6.69,5.44,12.13,12.13,12.13c6.69,0,12.13-5.44,12.13-12.13c0-3.69-1.66-6.99-4.26-9.22
				l11.4-21.66c1.01,0.27,2.06,0.42,3.15,0.42c6.69,0,12.13-5.44,12.13-12.13S612.37,371.52,605.68,371.52z M530.93,448.33
				c-3.75,0-6.79-3.05-6.79-6.79c0-3.75,3.05-6.79,6.79-6.79c3.75,0,6.79,3.05,6.79,6.79C537.73,445.28,534.68,448.33,530.93,448.33
				z M557.02,409.37c-3.75,0-6.79-3.05-6.79-6.79c0-3.75,3.05-6.79,6.79-6.79c3.75,0,6.79,3.05,6.79,6.79
				C563.81,406.32,560.76,409.37,557.02,409.37z M576.47,426.24c0-3.75,3.05-6.79,6.79-6.79c3.75,0,6.79,3.05,6.79,6.79
				c0,3.75-3.05,6.79-6.79,6.79C579.51,433.04,576.47,429.99,576.47,426.24z M605.68,390.44c-3.75,0-6.79-3.05-6.79-6.79
				c0-3.75,3.05-6.79,6.79-6.79c3.75,0,6.79,3.05,6.79,6.79C612.47,387.4,609.43,390.44,605.68,390.44z"/>
		</g>
	</g>
	<g>
		<path class="st4" d="M461.7,382.2c-0.16-0.69-0.59-1.29-1.19-1.66c-0.6-0.37-1.33-0.49-2.02-0.33l-66.69,15.73
			c-0.69,0.16-1.29,0.59-1.66,1.19c-0.37,0.6-0.49,1.33-0.33,2.02l10.86,46.04c0.29,1.23,1.39,2.06,2.6,2.06
			c0.2,0,0.41-0.02,0.62-0.07l66.69-15.73c0.69-0.16,1.28-0.59,1.66-1.19c0.37-0.6,0.49-1.33,0.33-2.02L461.7,382.2z M462.03,406.86
			l-11.42-6.64l7.3-10.85L462.03,406.86z M396.42,403.88l11.38,6.44l-7.25,11.04L396.42,403.88z M399.66,399.58l53.43-12.61
			l-20.88,31.03L399.66,399.58z M405.26,441.38l-3.03-12.86l10.22-15.56l19.28,10.91c0.41,0.23,0.87,0.35,1.31,0.35
			c0.86,0,1.7-0.42,2.22-1.18l12.37-18.38l16.1,9.35l3.03,12.86L405.26,441.38z"/>
		<path class="st4" d="M485.55,381.94h-16.77c-1.47,0-2.67,1.19-2.67,2.67c0,1.47,1.19,2.67,2.67,2.67h16.77
			c1.47,0,2.67-1.19,2.67-2.67C488.22,383.13,487.03,381.94,485.55,381.94z"/>
		<path class="st4" d="M482.73,395.53H471.6c-1.47,0-2.67,1.2-2.67,2.67s1.19,2.67,2.67,2.67h11.13c1.47,0,2.67-1.2,2.67-2.67
			S484.21,395.53,482.73,395.53z"/>
		<path class="st4" d="M480.06,409.12h-5.79c-1.47,0-2.67,1.2-2.67,2.67c0,1.47,1.19,2.67,2.67,2.67h5.79c1.47,0,2.67-1.2,2.67-2.67
			C482.73,410.32,481.54,409.12,480.06,409.12z"/>
	</g>
	<g>
		<g>
			<polygon class="st2" points="338.21,409.51 279.11,409.5 308.66,436.86 			"/>
			<polygon class="st2" points="274.97,412.94 274.97,432.76 285.55,422.74 			"/>
			<path class="st2" d="M310.47,442.45c-0.51,0.47-1.16,0.71-1.81,0.71c-0.65,0-1.3-0.24-1.81-0.71l-17.36-16.07l-14.51,13.73
				l0,14.26l67.38,0.01l0-14.26l-14.51-13.74L310.47,442.45z"/>
			<polygon class="st2" points="342.35,432.77 342.35,412.95 331.76,422.75 			"/>
			<path class="st3" d="M297.93,386.56l0,7.33l21.46,0l0-7.33c0-1.47,1.2-2.67,2.67-2.67l5.16,0l-18.56-12.54l-18.56,12.53l5.16,0
				C296.74,383.89,297.93,385.09,297.93,386.56z"/>
			<path class="st4" d="M345.02,404.17l-72.72-0.01c-1.47,0-2.67,1.19-2.67,2.67l0,50.2c0,1.47,1.19,2.67,2.67,2.67l72.72,0.01
				c1.47,0,2.67-1.19,2.67-2.67l0-50.2C347.69,405.37,346.49,404.17,345.02,404.17z M338.21,409.51l-29.55,27.35l-29.54-27.35
				L338.21,409.51z M274.97,412.94l10.58,9.8l-10.59,10.02L274.97,412.94z M342.35,454.37l-67.38-0.01l0-14.26l14.51-13.73
				l17.36,16.07c0.51,0.47,1.16,0.71,1.81,0.71c0.65,0,1.3-0.24,1.81-0.71l17.37-16.07l14.51,13.74L342.35,454.37z M342.35,432.77
				l-10.59-10.02l10.59-9.8L342.35,432.77z"/>
			<path class="st4" d="M281.38,389.23l11.21,0l0,7.33c0,1.47,1.19,2.67,2.67,2.67l26.8,0c1.47,0,2.67-1.19,2.67-2.67l0-7.33
				l11.21,0c0,0,0,0,0,0c1.47,0,2.67-1.19,2.67-2.67c0-0.96-0.51-1.81-1.28-2.28l-27.18-18.36c-0.9-0.61-2.09-0.61-2.99,0
				l-27.28,18.42c-0.97,0.66-1.4,1.87-1.06,2.99C279.17,388.46,280.21,389.23,281.38,389.23z M308.66,371.36l18.56,12.54l-5.16,0
				c-1.47,0-2.67,1.19-2.67,2.67l0,7.33l-21.46,0l0-7.33c0-1.47-1.19-2.67-2.67-2.67l-5.16,0L308.66,371.36z"/>
		</g>
	</g>
	<g>
		<path class="st2" d="M182.15,403.76c-0.51,0.47-1.16,0.71-1.81,0.71c-0.65,0-1.3-0.24-1.81-0.71l-17.36-16.07l-14.42,13.65
			c-0.03,0.03-0.06,0.05-0.09,0.08v14.27h67.38v-14.26l-14.51-13.73L182.15,403.76z"/>
		<polygon class="st2" points="209.88,370.81 150.79,370.81 180.33,398.16 		"/>
		<polygon class="st2" points="146.64,374.25 146.64,394.07 157.23,384.05 		"/>
		<polygon class="st2" points="214.02,394.07 214.02,374.25 203.44,384.05 		"/>
		<path class="st3" d="M191.06,438.62v-7.33H169.6v7.33c0,1.47-1.19,2.67-2.67,2.67h-5.16l18.56,12.53l18.56-12.53h-5.16
			C192.26,441.29,191.06,440.09,191.06,438.62z"/>
		<path class="st4" d="M216.69,365.47h-72.72c-1.47,0-2.67,1.19-2.67,2.67v50.2c0,1.47,1.19,2.67,2.67,2.67h72.72
			c1.47,0,2.67-1.2,2.67-2.67v-50.2C219.36,366.67,218.17,365.47,216.69,365.47z M209.88,370.81l-29.55,27.35l-29.55-27.35H209.88z
			 M146.64,374.25l10.59,9.8l-10.59,10.02V374.25z M214.02,415.68h-67.38v-14.27c0.03-0.03,0.06-0.05,0.09-0.08l14.42-13.65
			l17.36,16.07c0.51,0.47,1.16,0.71,1.81,0.71c0.65,0,1.3-0.24,1.81-0.71l17.36-16.07l14.51,13.73V415.68z M214.02,394.07
			l-10.59-10.02l10.59-9.8V394.07z"/>
		<path class="st4" d="M207.61,435.95H196.4v-7.33c0-1.47-1.2-2.67-2.67-2.67h-26.8c-1.47,0-2.67,1.2-2.67,2.67v7.33h-11.21
			c-1.17,0-2.21,0.77-2.55,1.89c-0.34,1.12,0.09,2.34,1.06,2.99l27.28,18.42c0.45,0.3,0.97,0.46,1.49,0.46
			c0.52,0,1.04-0.15,1.49-0.46l27.28-18.42c0.97-0.66,1.4-1.87,1.06-2.99C209.82,436.72,208.78,435.95,207.61,435.95z
			 M180.33,453.82l-18.56-12.53h5.16c1.47,0,2.67-1.2,2.67-2.67v-7.33h21.46v7.33c0,1.47,1.19,2.67,2.67,2.67h5.16L180.33,453.82z"
			/>
	</g>
	<path class="st4" d="M91.12,381.54H9.21c-1.47,0-2.67,1.2-2.67,2.67v56.55c0,1.47,1.2,2.67,2.67,2.67h81.91
		c1.47,0,2.67-1.2,2.67-2.67v-56.55C93.79,382.73,92.6,381.54,91.12,381.54z M11.88,390.32l12.76,11.81L11.88,414.2V390.32z
		 M16.02,386.88h68.28l-34.14,31.6L16.02,386.88z M88.45,390.32v23.88L75.7,402.12L88.45,390.32z M11.88,438.09v-16.54l16.68-15.79
		l19.79,18.32c0.51,0.47,1.16,0.71,1.81,0.71c0.65,0,1.3-0.24,1.81-0.71l19.79-18.32l16.3,15.43c0.12,0.11,0.25,0.21,0.38,0.3v16.61
		H11.88z"/>
	<g>
		<g>
			<path class="st3" d="M579.07,289.27c0-5.93-4.83-10.76-10.76-10.76c-5.93,0-10.76,4.83-10.76,10.76
				c0,5.93,4.83,10.76,10.76,10.76C574.24,300.03,579.07,295.2,579.07,289.27z"/>
			<path class="st3" d="M602.52,312.37h7.75v-7.75C606.48,305.59,603.49,308.58,602.52,312.37z"/>
			<path class="st2" d="M602.52,312.37h7.75v-7.75C606.48,305.59,603.49,308.58,602.52,312.37z"/>
			<path class="st3" d="M534.09,266.17h-7.76v7.75C530.13,272.95,533.12,269.96,534.09,266.17z"/>
			<path class="st3" d="M526.34,304.62v7.75h7.75C533.12,308.58,530.13,305.59,526.34,304.62z"/>
			<path class="st3" d="M610.28,273.92v-7.75h-7.75C603.49,269.96,606.48,272.95,610.28,273.92z"/>
			<path class="st2" d="M597.07,266.17h-57.53c-1.13,6.74-6.46,12.07-13.2,13.2v19.8c6.74,1.13,12.07,6.46,13.2,13.2h57.53
				c1.13-6.74,6.46-12.07,13.2-13.2v-19.8C603.53,278.24,598.2,272.91,597.07,266.17z"/>
			<path class="st2" d="M610.28,273.92v-7.75h-7.75C603.49,269.96,606.48,272.95,610.28,273.92z"/>
			<path class="st4" d="M612.94,260.83h-89.27c-1.47,0-2.67,1.19-2.67,2.67v51.54c0,1.47,1.19,2.67,2.67,2.67h89.27
				c1.47,0,2.67-1.2,2.67-2.67V263.5C615.61,262.02,614.42,260.83,612.94,260.83z M526.34,312.37v-7.75
				c3.79,0.97,6.78,3.96,7.75,7.75H526.34z M534.09,266.17c-0.97,3.79-3.96,6.78-7.76,7.75v-7.75H534.09z M610.28,312.37h-7.75
				c0.97-3.79,3.96-6.78,7.75-7.75V312.37z M610.28,299.17c-6.74,1.13-12.07,6.46-13.2,13.2h-57.53c-1.13-6.74-6.46-12.07-13.2-13.2
				v-19.8c6.74-1.13,12.07-6.46,13.2-13.2h57.53c1.13,6.74,6.46,12.07,13.2,13.2V299.17z M610.28,273.92
				c-3.79-0.97-6.78-3.96-7.76-7.75h7.76V273.92z"/>
			<path class="st4" d="M568.31,273.17c-8.88,0-16.1,7.22-16.1,16.1c0,8.88,7.22,16.1,16.1,16.1c8.88,0,16.1-7.22,16.1-16.1
				C584.4,280.39,577.18,273.17,568.31,273.17z M557.55,289.27c0-5.93,4.83-10.76,10.76-10.76c5.93,0,10.76,4.83,10.76,10.76
				c0,5.93-4.83,10.76-10.76,10.76C562.37,300.03,557.55,295.2,557.55,289.27z"/>
		</g>
	</g>
	<g>
		<g>
			
				<ellipse transform="matrix(0.6057 -0.7957 0.7957 0.6057 -43.1169 456.439)" class="st2" cx="438.98" cy="271.72" rx="8.38" ry="8.38"/>
			<path class="st2" d="M440.95,323.51c-0.51,0.55-1.22,0.87-1.97,0.87c-0.75,0-1.46-0.31-1.97-0.87
				c-0.22-0.24-4.07-4.46-8.97-10.59l-22.15,7.59l33.02,11.36l33.16-11.37l-22.13-7.61C445.03,319.04,441.17,323.27,440.95,323.51z"
				/>
			<path class="st3" d="M412.21,273.29c0,11.57,17.8,34.2,26.78,44.42c8.98-10.22,26.78-32.86,26.78-44.42
				c0-14.76-12.01-26.78-26.78-26.78C424.22,246.51,412.21,258.52,412.21,273.29z M438.98,258.01c7.56,0,13.72,6.15,13.72,13.72
				c0,7.56-6.15,13.72-13.72,13.72c-7.56,0-13.72-6.15-13.72-13.72C425.26,264.16,431.42,258.01,438.98,258.01z"/>
			<path class="st4" d="M481.16,317.99l-27.75-9.54c0.81-1.06,1.62-2.15,2.44-3.27c10.11-13.83,15.24-24.56,15.24-31.88
				c0-17.71-14.41-32.11-32.11-32.11s-32.11,14.41-32.11,32.11c0,7.32,5.13,18.05,15.24,31.88c0.83,1.13,1.65,2.23,2.46,3.3
				l-27.76,9.52c-1.08,0.37-1.8,1.38-1.8,2.52c0,1.14,0.72,2.15,1.8,2.53l41.24,14.18c0.28,0.1,0.57,0.15,0.87,0.15
				c0.29,0,0.59-0.05,0.87-0.14l41.38-14.18c1.08-0.37,1.8-1.38,1.8-2.52C482.96,319.37,482.24,318.36,481.16,317.99z
				 M465.76,273.29c0,11.56-17.8,34.2-26.78,44.42c-8.98-10.22-26.78-32.85-26.78-44.42c0-14.76,12.01-26.78,26.78-26.78
				C453.75,246.51,465.76,258.52,465.76,273.29z M438.91,331.87l-33.02-11.36l22.15-7.59c4.9,6.13,8.75,10.35,8.97,10.59
				c0.51,0.55,1.22,0.87,1.97,0.87c0.75,0,1.46-0.31,1.97-0.87c0.22-0.24,4.08-4.47,8.99-10.61l22.13,7.61L438.91,331.87z"/>
			<path class="st4" d="M438.98,285.44c7.56,0,13.72-6.15,13.72-13.72c0-7.56-6.15-13.72-13.72-13.72
				c-7.56,0-13.72,6.15-13.72,13.72C425.26,279.29,431.42,285.44,438.98,285.44z M447.36,271.72c0,4.62-3.76,8.38-8.38,8.38
				c-4.62,0-8.38-3.76-8.38-8.38c0-4.62,3.76-8.38,8.38-8.38C443.6,263.34,447.36,267.1,447.36,271.72z"/>
		</g>
	</g>
	<g>
		<g>
			<path class="st2" d="M285.85,330.34h60.39c1.92,0,3.48-1.56,3.48-3.48v-57.74h-63.87V330.34z M294.96,278.03h42.99
				c1.47,0,2.67,1.19,2.67,2.67s-1.19,2.67-2.67,2.67h-42.99c-1.47,0-2.67-1.19-2.67-2.67S293.48,278.03,294.96,278.03z
				 M294.96,290.85h42.99c1.47,0,2.67,1.19,2.67,2.67c0,1.47-1.19,2.67-2.67,2.67h-42.99c-1.47,0-2.67-1.2-2.67-2.67
				C292.29,292.04,293.48,290.85,294.96,290.85z M294.96,303.66h42.99c1.47,0,2.67,1.19,2.67,2.67c0,1.47-1.19,2.67-2.67,2.67
				h-42.99c-1.47,0-2.67-1.19-2.67-2.67C292.29,304.86,293.48,303.66,294.96,303.66z M294.96,316.48h23.98
				c1.47,0,2.67,1.19,2.67,2.67c0,1.47-1.19,2.67-2.67,2.67h-23.98c-1.47,0-2.67-1.19-2.67-2.67
				C292.29,317.67,293.48,316.48,294.96,316.48z"/>
			<path class="st2" d="M267.59,326.85c0,1.92,1.56,3.48,3.48,3.48h9.44v-61.23h-12.93V326.85z"/>
			<path class="st3" d="M349.73,251.68c0-1.92-1.56-3.48-3.48-3.48h-75.17c-1.92,0-3.48,1.56-3.48,3.48v12.09h82.14V251.68z"/>
			<path class="st4" d="M346.24,242.86h-75.17c-4.86,0-8.82,3.96-8.82,8.82v75.17c0,4.86,3.96,8.82,8.82,8.82h75.17
				c4.86,0,8.82-3.96,8.82-8.82v-75.17C355.06,246.82,351.11,242.86,346.24,242.86z M267.59,251.68c0-1.92,1.56-3.48,3.48-3.48
				h75.17c1.92,0,3.48,1.56,3.48,3.48v12.09h-82.14V251.68z M280.52,330.34h-9.44c-1.92,0-3.48-1.56-3.48-3.48v-57.74h12.93V330.34z
				 M349.73,326.85c0,1.92-1.56,3.48-3.48,3.48h-60.39v-61.23h63.87V326.85z"/>
			<path class="st4" d="M294.96,283.37h42.99c1.47,0,2.67-1.19,2.67-2.67s-1.19-2.67-2.67-2.67h-42.99c-1.47,0-2.67,1.19-2.67,2.67
				S293.48,283.37,294.96,283.37z"/>
			<path class="st4" d="M294.96,296.18h42.99c1.47,0,2.67-1.2,2.67-2.67c0-1.47-1.19-2.67-2.67-2.67h-42.99
				c-1.47,0-2.67,1.19-2.67,2.67C292.29,294.99,293.48,296.18,294.96,296.18z"/>
			<path class="st4" d="M294.96,309h42.99c1.47,0,2.67-1.19,2.67-2.67c0-1.47-1.19-2.67-2.67-2.67h-42.99
				c-1.47,0-2.67,1.19-2.67,2.67C292.29,307.8,293.48,309,294.96,309z"/>
			<path class="st4" d="M294.96,321.81h23.98c1.47,0,2.67-1.19,2.67-2.67c0-1.47-1.19-2.67-2.67-2.67h-23.98
				c-1.47,0-2.67,1.19-2.67,2.67C292.29,320.62,293.48,321.81,294.96,321.81z"/>
		</g>
	</g>
	<g>
		<g>
			<path class="st2" d="M141.46,260.12c1.11,5.07,4.06,15.49,10.78,22.95h4.85c-3.84-7.87-5.41-16.73-6.04-22.95H141.46z"/>
			<path class="st2" d="M171.96,321.13c-1.21,0.33-6.63,2.12-8.3,7.87h33.35c-1.66-5.73-7.06-7.53-8.3-7.87H171.96z"/>
			<path class="st2" d="M173.86,315.79h12.94c2.21,0,4-1.8,4-4v-0.3c0-2.21-1.8-4-4-4h-12.94c-2.21,0-4,1.8-4,4v0.3
				C169.86,314,171.65,315.79,173.86,315.79z"/>
			<path class="st2" d="M203.58,283.07h4.85c6.73-7.48,9.68-17.88,10.78-22.95h-9.59C208.99,266.34,207.42,275.2,203.58,283.07z"/>
			<path class="st3" d="M156.03,254.88c0.33,7.08,2.25,26.61,13.28,35.72c0.47,0.39,0.79,0.93,0.92,1.53l2.03,10.02h16.16
				l2.03-10.02c0.12-0.6,0.44-1.14,0.92-1.53c11.03-9.12,12.95-28.64,13.28-35.72H156.03z"/>
			<path class="st4" d="M224.42,255.69c-0.51-0.58-1.24-0.91-2.01-0.91H210c0.06-1.48,0.05-2.41,0.05-2.61
				c-0.02-1.46-1.21-2.63-2.67-2.63h-54.08c-1.46,0-2.65,1.17-2.67,2.63c0,0.2-0.01,1.13,0.05,2.61h-12.41
				c-0.77,0-1.5,0.33-2.01,0.91c-0.51,0.58-0.74,1.35-0.64,2.11c0.1,0.75,2.53,18.4,13.55,29.8c0.5,0.52,1.19,0.81,1.92,0.81h9.12
				c1.43,2.07,3.08,4,4.98,5.68l2.17,10.72c-1.74,1.7-2.83,4.07-2.83,6.69v0.3c0,2.21,0.77,4.24,2.06,5.84
				c-0.59,0.33-1.21,0.71-1.83,1.15c-2.94,2.1-6.52,6.02-6.89,12.73c-0.04,0.73,0.22,1.45,0.73,1.98c0.5,0.53,1.21,0.83,1.94,0.83
				h39.61c0.73,0,1.43-0.3,1.94-0.83c0.5-0.53,0.77-1.25,0.73-1.98c-0.37-6.72-3.95-10.63-6.89-12.73
				c-0.62-0.45-1.24-0.83-1.83-1.15c1.29-1.6,2.06-3.63,2.06-5.84v-0.3c0-2.62-1.08-4.99-2.83-6.69l2.17-10.72
				c1.9-1.68,3.54-3.61,4.98-5.68h9.12c0.72,0,1.42-0.29,1.92-0.81c11.03-11.4,13.46-29.05,13.55-29.8
				C225.16,257.04,224.93,256.27,224.42,255.69z M169.86,311.49c0-2.21,1.8-4,4-4h12.94c2.21,0,4,1.8,4,4v0.3c0,2.21-1.8,4-4,4
				h-12.94c-2.21,0-4-1.8-4-4V311.49z M191.36,290.6c-0.47,0.39-0.79,0.93-0.92,1.53l-2.03,10.02h-16.16l-2.03-10.02
				c-0.12-0.6-0.44-1.14-0.92-1.53c-11.03-9.12-12.95-28.64-13.28-35.72h48.61C204.31,261.96,202.38,281.48,191.36,290.6z
				 M152.24,283.07c-6.71-7.46-9.67-17.87-10.78-22.95h9.58c0.63,6.21,2.2,15.07,6.04,22.95H152.24z M197.01,329h-33.35
				c1.67-5.75,7.08-7.53,8.3-7.87h16.75C189.95,321.47,195.35,323.26,197.01,329z M208.43,283.07h-4.85
				c3.84-7.87,5.41-16.73,6.04-22.95h9.59C218.11,265.19,215.16,275.59,208.43,283.07z"/>
		</g>
	</g>
	<g>
		<g>
			<path class="st2" d="M12.85,318.51h74.31v-43.12H12.85V318.51z M24.83,288.51c0-3.44,2.79-6.23,6.23-6.23h37.89
				c3.44,0,6.23,2.79,6.23,6.23v7.68c0,3.44-2.79,6.23-6.23,6.23H31.06c-3.44,0-6.23-2.79-6.23-6.23V288.51z"/>
			<path class="st2" d="M31.06,297.08h37.89c0.49,0,0.89-0.4,0.89-0.89v-7.68c0-0.49-0.4-0.89-0.89-0.89H31.06
				c-0.49,0-0.89,0.4-0.89,0.89v7.68C30.17,296.68,30.57,297.08,31.06,297.08z"/>
			<rect x="6.68" y="261.36" class="st3" width="86.65" height="8.69"/>
			<path class="st4" d="M96,256.02H4.02c-1.47,0-2.67,1.2-2.67,2.67v14.03c0,1.47,1.19,2.67,2.67,2.67h3.5v45.79
				c0,1.47,1.19,2.67,2.67,2.67h79.64c1.47,0,2.67-1.19,2.67-2.67v-45.79H96c1.47,0,2.67-1.19,2.67-2.67v-14.03
				C98.67,257.22,97.48,256.02,96,256.02z M93.33,270.05H6.68v-8.69h86.65V270.05z M87.16,318.51H12.85v-43.12h74.31V318.51z"/>
			<path class="st4" d="M31.06,302.42h37.89c3.44,0,6.23-2.79,6.23-6.23v-7.68c0-3.44-2.79-6.23-6.23-6.23H31.06
				c-3.44,0-6.23,2.79-6.23,6.23v7.68C24.83,299.62,27.63,302.42,31.06,302.42z M30.17,288.51c0-0.49,0.4-0.89,0.89-0.89h37.89
				c0.49,0,0.89,0.4,0.89,0.89v7.68c0,0.49-0.4,0.89-0.89,0.89H31.06c-0.49,0-0.89-0.4-0.89-0.89V288.51z"/>
		</g>
	</g>
	<g>
		<g>
			<path class="st2" d="M534.48,209.51c0,1.24,1.01,2.24,2.24,2.24h63.16c1.24,0,2.24-1.01,2.24-2.24v-49.8h-67.64V209.51z
				 M583.03,166.22h12.56c1.47,0,2.67,1.2,2.67,2.67c0,1.47-1.2,2.67-2.67,2.67h-12.56c-1.47,0-2.67-1.19-2.67-2.67
				C580.36,167.41,581.56,166.22,583.03,166.22z M583.03,177.54h12.56c1.47,0,2.67,1.19,2.67,2.67c0,1.47-1.2,2.67-2.67,2.67h-12.56
				c-1.47,0-2.67-1.19-2.67-2.67C580.36,178.73,581.56,177.54,583.03,177.54z M580.36,191.53c0-1.47,1.19-2.67,2.67-2.67h12.56
				c1.47,0,2.67,1.19,2.67,2.67v11.32c0,1.47-1.2,2.67-2.67,2.67h-12.56c-1.47,0-2.67-1.19-2.67-2.67V191.53z M562.03,166.22h12.56
				c1.47,0,2.67,1.2,2.67,2.67c0,1.47-1.2,2.67-2.67,2.67h-12.56c-1.47,0-2.67-1.19-2.67-2.67
				C559.36,167.41,560.55,166.22,562.03,166.22z M562.03,177.54h12.56c1.47,0,2.67,1.19,2.67,2.67c0,1.47-1.2,2.67-2.67,2.67h-12.56
				c-1.47,0-2.67-1.19-2.67-2.67C559.36,178.73,560.55,177.54,562.03,177.54z M562.03,188.86h12.56c1.47,0,2.67,1.19,2.67,2.67
				c0,1.47-1.2,2.67-2.67,2.67h-12.56c-1.47,0-2.67-1.19-2.67-2.67C559.36,190.06,560.55,188.86,562.03,188.86z M562.03,200.18
				h12.56c1.47,0,2.67,1.2,2.67,2.67c0,1.47-1.2,2.67-2.67,2.67h-12.56c-1.47,0-2.67-1.19-2.67-2.67
				C559.36,201.38,560.55,200.18,562.03,200.18z M541.02,166.22h12.56c1.47,0,2.67,1.2,2.67,2.67c0,1.47-1.2,2.67-2.67,2.67h-12.56
				c-1.47,0-2.67-1.19-2.67-2.67C538.36,167.41,539.55,166.22,541.02,166.22z M541.02,177.54h12.56c1.47,0,2.67,1.19,2.67,2.67
				c0,1.47-1.2,2.67-2.67,2.67h-12.56c-1.47,0-2.67-1.19-2.67-2.67C538.36,178.73,539.55,177.54,541.02,177.54z M541.02,188.86
				h12.56c1.47,0,2.67,1.19,2.67,2.67c0,1.47-1.2,2.67-2.67,2.67h-12.56c-1.47,0-2.67-1.19-2.67-2.67
				C538.36,190.06,539.55,188.86,541.02,188.86z M541.02,200.18h12.56c1.47,0,2.67,1.2,2.67,2.67c0,1.47-1.2,2.67-2.67,2.67h-12.56
				c-1.47,0-2.67-1.19-2.67-2.67C538.36,201.38,539.55,200.18,541.02,200.18z"/>
			<rect x="534.48" y="132.14" class="st2" width="67.64" height="4.48"/>
			<rect x="534.48" y="141.96" class="st3" width="67.64" height="12.41"/>
			<rect x="585.7" y="194.2" class="st3" width="7.22" height="5.98"/>
			<path class="st4" d="M604.8,126.8h-72.98c-1.47,0-2.67,1.2-2.67,2.67v80.04c0,4.18,3.4,7.58,7.58,7.58h63.16
				c4.18,0,7.58-3.4,7.58-7.58v-80.04C607.47,128,606.27,126.8,604.8,126.8z M534.48,132.14h67.64v4.48h-67.64V132.14z
				 M602.13,154.37h-67.64v-12.41h67.64V154.37z M602.13,209.51c0,1.24-1.01,2.24-2.24,2.24h-63.16c-1.24,0-2.24-1.01-2.24-2.24
				v-49.8h67.64V209.51z"/>
			<path class="st4" d="M541.02,171.56h12.56c1.47,0,2.67-1.19,2.67-2.67c0-1.47-1.2-2.67-2.67-2.67h-12.56
				c-1.47,0-2.67,1.2-2.67,2.67C538.36,170.36,539.55,171.56,541.02,171.56z"/>
			<path class="st4" d="M583.03,171.56h12.56c1.47,0,2.67-1.19,2.67-2.67c0-1.47-1.2-2.67-2.67-2.67h-12.56
				c-1.47,0-2.67,1.2-2.67,2.67C580.36,170.36,581.56,171.56,583.03,171.56z"/>
			<path class="st4" d="M562.03,171.56h12.56c1.47,0,2.67-1.19,2.67-2.67c0-1.47-1.2-2.67-2.67-2.67h-12.56
				c-1.47,0-2.67,1.2-2.67,2.67C559.36,170.36,560.55,171.56,562.03,171.56z"/>
			<path class="st4" d="M541.02,182.88h12.56c1.47,0,2.67-1.19,2.67-2.67c0-1.47-1.2-2.67-2.67-2.67h-12.56
				c-1.47,0-2.67,1.19-2.67,2.67C538.36,181.68,539.55,182.88,541.02,182.88z"/>
			<path class="st4" d="M583.03,182.88h12.56c1.47,0,2.67-1.19,2.67-2.67c0-1.47-1.2-2.67-2.67-2.67h-12.56
				c-1.47,0-2.67,1.19-2.67,2.67C580.36,181.68,581.56,182.88,583.03,182.88z"/>
			<path class="st4" d="M562.03,182.88h12.56c1.47,0,2.67-1.19,2.67-2.67c0-1.47-1.2-2.67-2.67-2.67h-12.56
				c-1.47,0-2.67,1.19-2.67,2.67C559.36,181.68,560.55,182.88,562.03,182.88z"/>
			<path class="st4" d="M541.02,194.2h12.56c1.47,0,2.67-1.19,2.67-2.67c0-1.47-1.2-2.67-2.67-2.67h-12.56
				c-1.47,0-2.67,1.19-2.67,2.67C538.36,193,539.55,194.2,541.02,194.2z"/>
			<path class="st4" d="M583.03,205.52h12.56c1.47,0,2.67-1.19,2.67-2.67v-11.32c0-1.47-1.2-2.67-2.67-2.67h-12.56
				c-1.47,0-2.67,1.19-2.67,2.67v11.32C580.36,204.33,581.56,205.52,583.03,205.52z M585.7,194.2h7.22v5.98h-7.22V194.2z"/>
			<path class="st4" d="M562.03,194.2h12.56c1.47,0,2.67-1.19,2.67-2.67c0-1.47-1.2-2.67-2.67-2.67h-12.56
				c-1.47,0-2.67,1.19-2.67,2.67C559.36,193,560.55,194.2,562.03,194.2z"/>
			<path class="st4" d="M541.02,205.52h12.56c1.47,0,2.67-1.19,2.67-2.67c0-1.47-1.2-2.67-2.67-2.67h-12.56
				c-1.47,0-2.67,1.2-2.67,2.67C538.36,204.33,539.55,205.52,541.02,205.52z"/>
			<path class="st4" d="M562.03,205.52h12.56c1.47,0,2.67-1.19,2.67-2.67c0-1.47-1.2-2.67-2.67-2.67h-12.56
				c-1.47,0-2.67,1.2-2.67,2.67C559.36,204.33,560.55,205.52,562.03,205.52z"/>
		</g>
	</g>
	<g>
		<g>
			<rect x="406.85" y="130.67" class="st2" width="5.61" height="3.37"/>
			<rect x="406.85" y="139.38" class="st2" width="5.61" height="73.83"/>
			<path class="st3" d="M459.93,155.99l9.3-16.61h-51.44v35.83h51.44l-9.3-16.61C459.48,157.79,459.48,156.8,459.93,155.99z"/>
			<path class="st4" d="M465.32,157.3l10.8-19.28c0.46-0.83,0.45-1.84-0.03-2.65c-0.48-0.82-1.36-1.32-2.3-1.32h-55.99V128
				c0-1.47-1.19-2.67-2.67-2.67h-10.95c-1.47,0-2.67,1.19-2.67,2.67v87.88c0,1.47,1.19,2.67,2.67,2.67h10.95
				c1.47,0,2.67-1.2,2.67-2.67v-35.33h55.99c0.95,0,1.82-0.5,2.3-1.32c0.48-0.82,0.49-1.83,0.03-2.65L465.32,157.3z M412.45,213.21
				h-5.61v-73.83h5.61V213.21z M412.45,134.04h-5.61v-3.37h5.61V134.04z M417.79,175.21v-35.83h51.44l-9.3,16.61
				c-0.45,0.81-0.45,1.8,0,2.61l9.3,16.61H417.79z"/>
		</g>
	</g>
	<g>
		<path class="st2" d="M336.01,185.31c-3.07,0-6.25,1.42-8.73,3.9c-4.41,4.41-5.21,10.77-1.8,14.19c1.74,1.74,3.93,2.1,5.46,2.1
			c3.07,0,6.25-1.42,8.73-3.9c4.41-4.41,5.21-10.77,1.8-14.19C339.73,185.67,337.54,185.31,336.01,185.31z"/>
		<path class="st2" d="M283.08,194.9c-3.07,0-6.25,1.42-8.73,3.9c-4.41,4.41-5.21,10.77-1.8,14.19c1.74,1.74,3.93,2.1,5.46,2.1
			c3.07,0,6.25-1.42,8.73-3.9c2.2-2.2,3.57-4.95,3.85-7.73c0.26-2.58-0.47-4.87-2.05-6.46C286.8,195.27,284.61,194.9,283.08,194.9z"
			/>
		<polygon class="st3" points="295.98,165.84 343.57,144.7 343.57,128.64 295.98,149.84 		"/>
		<path class="st4" d="M348.91,124.48c-0.01-0.35-0.08-0.7-0.23-1.04c-0.6-1.35-2.18-1.95-3.52-1.35l-52.93,23.57
			c-0.98,0.44-1.57,1.39-1.58,2.4c0,0.16,0,43.78,0,43.78c-2.14-1.48-4.75-2.28-7.56-2.28c-4.47,0-9.03,1.99-12.5,5.46
			c-6.49,6.49-7.29,16.24-1.8,21.73c2.36,2.36,5.64,3.67,9.23,3.67c4.47,0,9.03-1.99,12.5-5.46c3.07-3.07,4.99-6.97,5.39-10.97
			c0.06-0.62,0.09-1.24,0.08-1.84c0-0.04,0-30.47,0-30.47l47.59-21.15v31.71c-2.14-1.48-4.75-2.28-7.56-2.28
			c-4.47,0-9.03,1.99-12.5,5.46c-6.49,6.49-7.29,16.24-1.8,21.73c2.36,2.36,5.64,3.67,9.23,3.67c4.47,0,9.03-1.99,12.5-5.46
			c3.62-3.62,5.49-8.26,5.46-12.61C348.92,192.66,348.91,124.65,348.91,124.48z M290.59,203.46c-0.28,2.78-1.65,5.53-3.85,7.73
			c-2.48,2.48-5.66,3.9-8.73,3.9c-1.53,0-3.72-0.36-5.46-2.1c-3.42-3.42-2.61-9.78,1.8-14.19c2.48-2.48,5.66-3.9,8.73-3.9
			c1.53,0,3.72,0.37,5.46,2.1C290.12,198.59,290.85,200.88,290.59,203.46z M343.57,144.7l-47.59,21.15v-16.01l47.59-21.2V144.7z
			 M339.67,201.6c-2.48,2.48-5.66,3.9-8.73,3.9c-1.53,0-3.72-0.37-5.46-2.1c-3.42-3.42-2.61-9.78,1.8-14.19
			c2.48-2.48,5.66-3.9,8.73-3.9c1.53,0,3.72,0.36,5.46,2.1C344.88,190.83,344.08,197.19,339.67,201.6z"/>
	</g>
	<g>
		<g>
			<path class="st2" d="M180.33,191.15c6.47,0,11.98-4,12.48-8.88h-24.97C168.36,187.16,173.86,191.15,180.33,191.15z"/>
			<path class="st2" d="M192.86,170.37h-7.78c-1.47,0-2.67-1.19-2.67-2.67s1.2-2.67,2.67-2.67h7.78v-6.65h-7.78
				c-1.47,0-2.67-1.19-2.67-2.67s1.2-2.67,2.67-2.67h7.78v-6.65h-7.78c-1.47,0-2.67-1.19-2.67-2.67c0-1.47,1.2-2.67,2.67-2.67h7.78
				v-3.1c0-5.21-5.74-9.61-12.53-9.61c-6.79,0-12.53,4.4-12.53,9.61v3.1h7.78c1.47,0,2.67,1.19,2.67,2.67c0,1.47-1.2,2.67-2.67,2.67
				h-7.78v6.65h7.78c1.47,0,2.67,1.2,2.67,2.67s-1.2,2.67-2.67,2.67h-7.78v6.65h7.78c1.47,0,2.67,1.2,2.67,2.67s-1.2,2.67-2.67,2.67
				h-7.78v6.57h25.05V170.37z"/>
			<path class="st3" d="M180.33,205.85c-6.79,0-12.53,4.4-12.53,9.61v0.09h25.05v-0.09C192.86,210.25,187.12,205.85,180.33,205.85z"
				/>
			<path class="st4" d="M167.9,192.22c3.37,2.76,7.79,4.27,12.43,4.27c4.64,0,9.06-1.52,12.43-4.27c3.45-2.82,5.43-6.71,5.43-10.67
				v-43.6c0-3.96-1.98-7.85-5.43-10.67c-3.37-2.76-7.79-4.27-12.43-4.27c-4.64,0-9.06,1.52-12.43,4.27
				c-3.45,2.82-5.43,6.71-5.43,10.67v43.6C162.47,185.51,164.45,189.4,167.9,192.22z M180.33,191.15c-6.47,0-11.98-4-12.48-8.88
				h24.97C192.31,187.16,186.8,191.15,180.33,191.15z M167.81,170.37h7.78c1.47,0,2.67-1.19,2.67-2.67s-1.2-2.67-2.67-2.67h-7.78
				v-6.65h7.78c1.47,0,2.67-1.19,2.67-2.67s-1.2-2.67-2.67-2.67h-7.78v-6.65h7.78c1.47,0,2.67-1.19,2.67-2.67
				c0-1.47-1.2-2.67-2.67-2.67h-7.78v-3.1c0-5.21,5.74-9.61,12.53-9.61c6.79,0,12.53,4.4,12.53,9.61v3.1h-7.78
				c-1.47,0-2.67,1.19-2.67,2.67c0,1.47,1.2,2.67,2.67,2.67h7.78v6.65h-7.78c-1.47,0-2.67,1.2-2.67,2.67s1.2,2.67,2.67,2.67h7.78
				v6.65h-7.78c-1.47,0-2.67,1.2-2.67,2.67s1.2,2.67,2.67,2.67h7.78v6.57h-25.05V170.37z"/>
			<path class="st4" d="M204.44,158.61c-1.47,0-2.67,1.19-2.67,2.67v23.11c0,3.93-2.08,7.77-5.86,10.81
				c-4.01,3.22-9.37,5.1-15.11,5.3c-0.07,0-0.85,0-0.93,0c-5.74-0.2-11.1-2.09-15.11-5.3c-3.78-3.03-5.86-6.87-5.86-10.81v-23.11
				c0-1.47-1.19-2.67-2.67-2.67c-1.47,0-2.67,1.19-2.67,2.67v23.11c0,5.58,2.79,10.9,7.86,14.97c2.31,1.85,4.97,3.34,7.85,4.42
				c-0.47,0.32-0.93,0.65-1.37,1.01c-3.45,2.82-5.43,6.71-5.43,10.67v2.76c0,1.47,1.2,2.67,2.67,2.67h30.39
				c1.47,0,2.67-1.19,2.67-2.67v-2.76c0-3.96-1.98-7.85-5.43-10.67c-0.44-0.36-0.9-0.7-1.37-1.01c2.89-1.08,5.55-2.57,7.85-4.42
				c5.07-4.07,7.86-9.38,7.86-14.97v-23.11C207.1,159.81,205.91,158.61,204.44,158.61z M192.86,215.55h-25.05v-0.09
				c0-5.21,5.74-9.61,12.53-9.61c6.79,0,12.53,4.4,12.53,9.61V215.55z"/>
		</g>
	</g>
	<g>
		<g>
			<path class="st2" d="M56.19,134.61c-0.78-2.68-3.25-4.65-6.18-4.65c-2.93,0-5.41,1.97-6.18,4.65c2-0.41,4.06-0.63,6.18-0.63
				C52.13,133.98,54.19,134.2,56.19,134.61z"/>
			<path class="st2" d="M75.07,177.49v-13.12c0-13.82-11.24-25.06-25.06-25.06c-13.82,0-25.06,11.24-25.06,25.06v13.1
				c0,0.41-0.07,4.64-1.13,9.84H76.2C75.13,182.11,75.07,177.89,75.07,177.49z M50.01,148.4c-8.54,0-15.49,6.95-15.49,15.49
				c0,1.47-1.2,2.67-2.67,2.67c-1.47,0-2.67-1.2-2.67-2.67c0-11.48,9.34-20.82,20.83-20.82c1.47,0,2.67,1.19,2.67,2.67
				C52.68,147.2,51.48,148.4,50.01,148.4z"/>
			<path class="st2" d="M50.01,213.93c4.07,0,7.63-2.94,8.77-6.84H41.24C42.38,210.99,45.93,213.93,50.01,213.93z"/>
			<path class="st3" d="M82.28,201.75c-2.12-2.68-3.62-5.9-4.68-9.1H22.41c-1.06,3.21-2.55,6.43-4.68,9.1H82.28z"/>
			<path class="st4" d="M90.85,201.99c-10.06-4.54-10.44-24.04-10.45-24.53v-13.08c0-12.59-7.69-23.41-18.62-28.02
				c-0.02-6.47-5.29-11.73-11.77-11.73c-6.48,0-11.75,5.26-11.77,11.73c-10.93,4.61-18.62,15.43-18.62,28.02v13.08
				c-0.01,0.49-0.39,19.99-10.45,24.53c-1.15,0.52-1.78,1.76-1.51,2.99c0.26,1.23,1.35,2.11,2.61,2.11h25.5
				c0.52,2.88,1.88,5.55,3.96,7.72c2.76,2.88,6.41,4.46,10.28,4.46c3.87,0,7.52-1.58,10.28-4.46c2.08-2.17,3.44-4.84,3.96-7.72h25.5
				c1.26,0,2.34-0.88,2.61-2.11C92.63,203.75,92,202.5,90.85,201.99z M77.6,192.65c1.06,3.21,2.55,6.42,4.68,9.1H17.74
				c2.12-2.68,3.62-5.9,4.68-9.1H77.6z M50.01,129.96c2.93,0,5.41,1.97,6.18,4.65c-2-0.41-4.06-0.63-6.18-0.63
				c-2.12,0-4.19,0.22-6.18,0.63C44.6,131.93,47.08,129.96,50.01,129.96z M24.95,177.47v-13.1c0-13.82,11.24-25.06,25.06-25.06
				c13.82,0,25.06,11.24,25.06,25.06v13.12c0,0.4,0.07,4.62,1.13,9.82H23.82C24.88,182.11,24.95,177.88,24.95,177.47z M50.01,213.93
				c-4.07,0-7.63-2.94-8.77-6.84h17.54C57.64,210.99,54.08,213.93,50.01,213.93z"/>
			<path class="st4" d="M50.01,143.06c-11.48,0-20.83,9.34-20.83,20.82c0,1.47,1.2,2.67,2.67,2.67c1.47,0,2.67-1.2,2.67-2.67
				c0-8.54,6.95-15.49,15.49-15.49c1.47,0,2.67-1.19,2.67-2.67C52.68,144.25,51.48,143.06,50.01,143.06z"/>
		</g>
	</g>
	<g>
		<g>
			<path class="st2" d="M554.26,30.39v28.18c3.32,0.38,9.68,1.28,17.2,3.14c12.16,3.02,22.11,7.22,29.69,12.52V14.58
				c-7.57,5.31-17.53,9.54-29.7,12.6C563.95,29.06,557.6,29.99,554.26,30.39z"/>
			<path class="st2" d="M524.64,44.69c0.1,6.18,3.91,11.41,9.02,13.08v-26.6C528.38,32.84,524.54,38.3,524.64,44.69z"/>
			<rect x="539" y="30.62" class="st3" width="9.92" height="27.69"/>
			<path class="st3" d="M566.47,89.05l-7.08-24.35c-4.38-0.72-7.35-1-7.9-1.04h-5.03l8.39,28.85c0.01,0.03,0.02,0.05,0.03,0.08
				c1,3.12,4.36,4.89,7.49,3.97c3.14-0.93,4.99-4.25,4.13-7.41C566.48,89.11,566.48,89.08,566.47,89.05z"/>
			<path class="st4" d="M613.2,34.48c-1.89-1.83-4.23-2.98-6.72-3.33V9.11c0-1.05-0.61-2-1.57-2.43c-0.95-0.43-2.07-0.27-2.86,0.42
				c-16.36,14.34-46.28,17.79-50.29,18.2c-0.06,0-0.12-0.01-0.18-0.01l-14.5,0h0c-0.04,0-0.08,0-0.12,0c-0.02,0-0.05,0-0.07,0
				l-0.08,0c-9.83,0.17-17.69,8.91-17.52,19.48c0.08,5.03,1.95,9.75,5.26,13.3c3.37,3.6,7.84,5.59,12.58,5.59c0.09,0,3.75,0,3.75,0
				l8.87,30.48c0.02,0.08,0.05,0.15,0.08,0.23c0.93,2.78,2.87,5.06,5.46,6.44c1.67,0.88,3.49,1.33,5.33,1.33
				c1.09,0,2.18-0.16,3.25-0.47c2.88-0.85,5.27-2.76,6.73-5.39c1.43-2.57,1.81-5.54,1.08-8.38c-0.01-0.07-0.03-0.13-0.05-0.2
				l-6.37-21.9c11.15,2.32,26.58,6.97,36.79,15.92c0.5,0.44,1.12,0.66,1.76,0.66c0.37,0,0.75-0.08,1.1-0.24
				c0.95-0.43,1.57-1.38,1.57-2.43V57.58c6.19-0.86,10.93-6.59,10.82-13.42C617.25,40.48,615.76,36.95,613.2,34.48z M562.36,96.55
				c-3.13,0.93-6.5-0.85-7.49-3.97c-0.01-0.03-0.02-0.05-0.03-0.08l-8.39-28.85h5.03c0.55,0.05,3.53,0.32,7.9,1.04l7.08,24.35
				c0.01,0.03,0.02,0.06,0.02,0.09C567.35,92.3,565.5,95.62,562.36,96.55z M539,30.62l9.92,0v27.69H539V30.62z M533.67,57.76
				c-5.12-1.67-8.93-6.9-9.02-13.08c-0.1-6.39,3.74-11.85,9.02-13.53V57.76z M601.15,74.24c-7.57-5.3-17.53-9.5-29.69-12.52
				c-7.51-1.86-13.87-2.76-17.2-3.14V30.39c3.34-0.4,9.69-1.33,17.18-3.21c12.17-3.06,22.13-7.29,29.7-12.6V74.24z M606.49,52.15
				V36.59c1.1,0.29,2.13,0.88,3.01,1.72c1.54,1.49,2.44,3.65,2.48,5.93C612.03,48.07,609.67,51.33,606.49,52.15z"/>
		</g>
	</g>
	<g>
		<g>
			<path class="st2" d="M433.49,80.85l-8.76,2.53h32.62c1.47,0,2.67,1.19,2.67,2.67s-1.19,2.67-2.67,2.67h-50.65
				c-0.14,0-0.28-0.01-0.42-0.04c-0.14,0.02-0.29,0.04-0.43,0.04c-0.67,0-1.32-0.25-1.82-0.72c-0.69-0.64-0.99-1.59-0.79-2.51
				l6.21-29.05c0.11-0.5,0.36-0.97,0.72-1.33l32.49-32.49h-44.89v70.73h70.73V46.3l-33.87,33.87
				C434.32,80.49,433.93,80.73,433.49,80.85z"/>
			<polygon class="st2" points="428.24,76.81 413.68,62.26 409.41,82.25 			"/>
			<path class="st2" d="M464.66,9.89c-1.09,0-1.99,0.36-2.8,1.12c-0.03,0.03-0.07,0.06-0.1,0.09l-1.93,1.93l17.21,17.21l1.88-1.88
				c0.01-0.01,0.02-0.02,0.03-0.03l0.02-0.02c0.03-0.03,0.06-0.06,0.08-0.1c3.6-3.85-2.6-10.63-4.58-12.61
				C470.85,11.96,467.27,9.89,464.66,9.89z"/>
			<path class="st3" d="M415.91,56.94l17.21,17.21L473.27,34l-17.21-17.21L415.91,56.94z M460.72,29.34c1.04,1.04,1.04,2.73,0,3.77
				l-28.2,28.2c-0.52,0.52-1.2,0.78-1.89,0.78c-0.68,0-1.37-0.26-1.89-0.78c-1.04-1.04-1.04-2.73,0-3.77l28.2-28.2
				C457.99,28.29,459.68,28.29,460.72,29.34z"/>
			<path class="st4" d="M428.75,61.31c0.52,0.52,1.2,0.78,1.89,0.78c0.68,0,1.37-0.26,1.89-0.78l28.2-28.2
				c1.04-1.04,1.04-2.73,0-3.77c-1.04-1.04-2.73-1.04-3.77,0l-28.2,28.2C427.71,58.57,427.71,60.26,428.75,61.31z"/>
			<path class="st4" d="M484.85,21.56c-1.03-3.09-3.31-6.45-6.6-9.74c-3.31-3.32-8.36-7.27-13.58-7.27c-2.34,0-4.5,0.82-6.26,2.38
				c-0.09,0.07-0.18,0.15-0.26,0.23l-10.13,10.13h-52.9c-1.47,0-2.67,1.2-2.67,2.67v76.07c0,1.47,1.2,2.67,2.67,2.67h76.07
				c1.47,0,2.67-1.19,2.67-2.67V41.5c0-0.17-0.02-0.33-0.05-0.49l8.86-8.86c0.02-0.02,0.04-0.03,0.05-0.05c0,0,0,0,0,0l0.17-0.17
				c0.08-0.08,0.16-0.17,0.23-0.26C485.55,28.94,486.15,25.45,484.85,21.56z M428.24,76.81l-18.83,5.43l4.28-19.99L428.24,76.81z
				 M433.12,74.15l-17.21-17.21l40.14-40.15L473.27,34L433.12,74.15z M468.52,93.35h-70.73V22.62h44.89l-32.49,32.49
				c-0.36,0.36-0.62,0.83-0.72,1.33l-6.21,29.05c-0.2,0.92,0.1,1.87,0.79,2.51c0.5,0.47,1.15,0.72,1.82,0.72c0.14,0,51.49,0,51.49,0
				c1.47,0,2.67-1.19,2.67-2.67s-1.19-2.67-2.67-2.67h-32.62l8.76-2.53c0.43-0.13,0.83-0.36,1.15-0.68l33.87-33.87V93.35z
				 M479.06,28.2c-0.03,0.03-0.06,0.06-0.08,0.1l-0.02,0.02c-0.01,0.01-0.02,0.02-0.03,0.03l-1.88,1.88l-17.21-17.21l1.93-1.93
				c0.03-0.03,0.07-0.06,0.1-0.09c0.82-0.76,1.71-1.12,2.8-1.12c2.61,0,6.19,2.08,9.81,5.7C476.46,17.57,482.66,24.35,479.06,28.2z"
				/>
		</g>
	</g>
	<g>
		<g>
			<polygon class="st2" points="279.62,42.81 283.24,61.49 292.76,61.49 289.69,42.81 			"/>
			<path class="st2" d="M288.66,87.49c0,3.04,2.47,5.51,5.51,5.51c3.04,0,5.51-2.47,5.51-5.51s-2.47-5.51-5.51-5.51
				C291.14,81.97,288.66,84.45,288.66,87.49z"/>
			<path class="st2" d="M327.2,87.49c0,3.04,2.47,5.51,5.51,5.51c3.04,0,5.51-2.47,5.51-5.51s-2.47-5.51-5.51-5.51
				C329.68,81.97,327.2,84.45,327.2,87.49z"/>
			<polygon class="st2" points="298.17,61.49 310.4,61.49 310.4,42.81 295.1,42.81 			"/>
			<polygon class="st2" points="333.56,61.49 342.76,61.49 346.46,42.81 336.24,42.81 			"/>
			<polygon class="st2" points="315.74,61.49 328.16,61.49 330.84,42.81 315.74,42.81 			"/>
			<polygon class="st3" points="278.59,37.47 347.52,37.47 349.07,29.68 277.08,29.68 			"/>
			<path class="st4" d="M354.38,25.32c-0.51-0.62-1.26-0.98-2.06-0.98h-76.28l-2.53-13.06c-0.24-1.25-1.34-2.16-2.62-2.16h-9.01
				c-1.47,0-2.67,1.19-2.67,2.67c0,1.47,1.19,2.67,2.67,2.67h6.81l11.49,60.14c0.22,1.28,1.33,2.21,2.63,2.21h9.43
				c-5.06,0.92-8.91,5.35-8.91,10.67c0,5.98,4.87,10.85,10.85,10.85c5.98,0,10.85-4.87,10.85-10.85c0-5.32-3.85-9.76-8.91-10.67
				h34.66c-5.06,0.92-8.91,5.35-8.91,10.67c0,5.98,4.87,10.85,10.85,10.85c5.98,0,10.85-4.87,10.85-10.85
				c0-5.32-3.85-9.76-8.91-10.67h8.13c1.47,0,2.67-1.19,2.67-2.67c0-1.47-1.2-2.67-2.67-2.67h-57.73l-0.82-4.65h60.72
				c1.27,0,2.37-0.9,2.62-2.15l7.37-37.14C355.09,26.75,354.89,25.94,354.38,25.32z M338.23,87.49c0,3.04-2.47,5.51-5.51,5.51
				c-3.04,0-5.51-2.47-5.51-5.51s2.47-5.51,5.51-5.51C335.76,81.97,338.23,84.45,338.23,87.49z M299.69,87.49
				c0,3.04-2.47,5.51-5.51,5.51c-3.04,0-5.51-2.47-5.51-5.51s2.47-5.51,5.51-5.51C297.22,81.97,299.69,84.45,299.69,87.49z
				 M283.24,61.49l-3.62-18.67h10.07l3.07,18.67H283.24z M310.4,61.49h-12.23l-3.07-18.67h15.3V61.49z M328.16,61.49h-12.42V42.81
				h15.1L328.16,61.49z M342.76,61.49h-9.2l2.68-18.67h10.23L342.76,61.49z M347.52,37.47h-68.94l-1.51-7.79h71.99L347.52,37.47z"/>
		</g>
	</g>
	<g>
		<g>
			<path class="st2" d="M148.13,67.61c0,0.19,0.15,0.34,0.34,0.34h63.71c0.19,0,0.34-0.15,0.34-0.34V23.35h-64.4V67.61z
				 M203.86,28.39c0.5-0.5,1.19-0.78,1.89-0.78c0.7,0,1.39,0.28,1.89,0.78c0.5,0.5,0.78,1.19,0.78,1.89c0,0.7-0.28,1.39-0.78,1.89
				c-0.5,0.5-1.18,0.78-1.89,0.78c-0.7,0-1.39-0.28-1.89-0.78c-0.5-0.5-0.78-1.18-0.78-1.89C203.08,29.57,203.36,28.89,203.86,28.39
				z M153.15,59.65l18.2-16.06c1.02-0.9,2.55-0.89,3.55,0.02l6.93,6.25l16.06-15.58c1.06-1.03,2.75-1,3.77,0.06
				c1.03,1.06,1,2.75-0.06,3.77l-17.85,17.32c-1.01,0.98-2.6,1.01-3.65,0.07l-7.01-6.33l-16.41,14.49
				c-0.51,0.45-1.14,0.67-1.77,0.67c-0.74,0-1.47-0.31-2-0.9C151.94,62.32,152.05,60.63,153.15,59.65z"/>
			<path class="st3" d="M222.63,12.19h-84.59c-0.19,0-0.34,0.15-0.34,0.34v5.14c0,0.19,0.15,0.34,0.34,0.34h84.59
				c0.19,0,0.34-0.15,0.34-0.34v-5.14C222.97,12.34,222.82,12.19,222.63,12.19z"/>
			<path class="st4" d="M222.63,6.85h-84.59c-3.13,0-5.68,2.55-5.68,5.68v5.14c0,3.13,2.55,5.68,5.68,5.68h4.76v44.26
				c0,3.13,2.55,5.68,5.68,5.68h29.19v12.64l-26.12,6.99c-1.42,0.38-2.27,1.84-1.89,3.27c0.32,1.19,1.4,1.98,2.58,1.98
				c0.23,0,0.46-0.03,0.69-0.09l27.3-7.31c0.04,0,0.07,0.01,0.11,0.01c0.04,0,0.07,0,0.11-0.01l27.3,7.31
				c0.23,0.06,0.46,0.09,0.69,0.09c1.18,0,2.26-0.79,2.58-1.98c0.38-1.42-0.46-2.89-1.89-3.27L183,85.93V73.29h29.19
				c3.13,0,5.68-2.55,5.68-5.68V23.35h4.76c3.13,0,5.68-2.55,5.68-5.68v-5.14C228.31,9.4,225.76,6.85,222.63,6.85z M222.97,17.67
				c0,0.19-0.15,0.34-0.34,0.34h-84.59c-0.19,0-0.34-0.15-0.34-0.34v-5.14c0-0.19,0.15-0.34,0.34-0.34h84.59
				c0.19,0,0.34,0.15,0.34,0.34V17.67z M212.53,67.61c0,0.19-0.15,0.34-0.34,0.34h-63.71c-0.19,0-0.34-0.15-0.34-0.34V23.35h64.4
				V67.61z"/>
			<path class="st4" d="M154.92,64.32c0.63,0,1.26-0.22,1.77-0.67l16.41-14.49l7.01,6.33c1.04,0.94,2.64,0.91,3.65-0.07l17.85-17.32
				c1.06-1.03,1.08-2.72,0.06-3.77c-1.03-1.06-2.72-1.08-3.77-0.06l-16.06,15.58l-6.93-6.25c-1.01-0.91-2.54-0.92-3.55-0.02
				l-18.2,16.06c-1.1,0.98-1.21,2.66-0.23,3.77C153.45,64.02,154.18,64.32,154.92,64.32z"/>
			<path class="st4" d="M205.74,32.94c0.7,0,1.39-0.28,1.89-0.78c0.5-0.5,0.78-1.18,0.78-1.89c0-0.7-0.28-1.39-0.78-1.89
				c-0.5-0.5-1.18-0.78-1.89-0.78c-0.7,0-1.39,0.28-1.89,0.78c-0.5,0.5-0.78,1.19-0.78,1.89c0,0.7,0.28,1.39,0.78,1.89
				C204.35,32.66,205.04,32.94,205.74,32.94z"/>
		</g>
	</g>
	<g>
		<path class="st2" d="M51.51,53.11c7.72-7.72,7.72-20.28,0-27.99c-3.74-3.74-8.71-5.8-14-5.8c-5.29,0-10.26,2.06-14,5.8
			c-3.74,3.74-5.8,8.71-5.8,14c0,5.29,2.06,10.26,5.8,14c3.74,3.74,8.71,5.8,14,5.8C42.8,58.91,47.77,56.85,51.51,53.11z
			 M26.76,31.13c-1.04-1.04-1.04-2.73,0-3.77c2.87-2.87,6.69-4.45,10.75-4.45h0c4.06,0,7.88,1.58,10.75,4.46
			c1.04,1.04,1.04,2.73,0,3.77c-0.52,0.52-1.2,0.78-1.89,0.78c-0.68,0-1.37-0.26-1.89-0.78c-1.86-1.86-4.34-2.89-6.98-2.89
			c-2.64,0-5.12,1.03-6.98,2.89C29.49,32.18,27.8,32.18,26.76,31.13z"/>
		<path class="st2" d="M67.73,56.02l21.9,21.93V20.5H66.7C73.56,31.25,73.9,44.98,67.73,56.02z"/>
		<path class="st2" d="M37.52,73.73c-6.7,0-13.11-1.89-18.62-5.42v22.91h57.44L54.4,69.35C49.3,72.21,43.53,73.73,37.52,73.73z
			 M59.55,82.79c0,1.47-1.19,2.67-2.67,2.67H26.83c-1.47,0-2.67-1.19-2.67-2.67c0-1.47,1.19-2.67,2.67-2.67h30.05
			C58.36,80.12,59.55,81.31,59.55,82.79z"/>
		<path class="st3" d="M90.63,86.5L64.7,60.54c-0.83,1.06-1.74,2.08-2.71,3.05c-0.98,0.98-2,1.89-3.07,2.73l25.97,25.9
			c0.02,0.02,0.04,0.04,0.06,0.06c1.58,1.51,4.11,1.48,5.66-0.06c1.54-1.54,1.57-4.08,0.06-5.66C90.66,86.54,90.64,86.52,90.63,86.5
			z"/>
		<path class="st3" d="M58.22,59.82c11.42-11.42,11.42-29.99,0-41.41c-5.53-5.53-12.88-8.58-20.7-8.58c-7.82,0-15.17,3.05-20.7,8.58
			c-5.53,5.53-8.58,12.88-8.58,20.7c0,7.82,3.05,15.17,8.58,20.7c5.53,5.53,12.88,8.58,20.7,8.58
			C45.34,68.4,52.69,65.35,58.22,59.82z M12.38,39.12c0-6.71,2.61-13.02,7.36-17.77c4.75-4.75,11.06-7.36,17.77-7.36
			c6.71,0,13.02,2.61,17.77,7.36c9.8,9.8,9.8,25.74,0,35.54c-4.75,4.75-11.06,7.36-17.77,7.36c-6.71,0-13.02-2.61-17.77-7.36
			C15,52.14,12.38,45.83,12.38,39.12z"/>
		<path class="st4" d="M55.29,56.89c9.8-9.8,9.8-25.74,0-35.54c-4.75-4.75-11.06-7.36-17.77-7.36c-6.71,0-13.02,2.61-17.77,7.36
			C15,26.09,12.38,32.4,12.38,39.12c0,6.71,2.61,13.02,7.36,17.77c4.75,4.75,11.06,7.36,17.77,7.36
			C44.23,64.25,50.54,61.63,55.29,56.89z M17.72,39.12c0-5.29,2.06-10.26,5.8-14c3.74-3.74,8.71-5.8,14-5.8
			c5.29,0,10.26,2.06,14,5.8c7.72,7.72,7.72,20.28,0,27.99c-3.74,3.74-8.71,5.8-14,5.8c-5.29,0-10.26-2.06-14-5.8
			C19.78,49.37,17.72,44.4,17.72,39.12z"/>
		<path class="st4" d="M44.5,31.13c0.52,0.52,1.2,0.78,1.89,0.78c0.68,0,1.37-0.26,1.89-0.78c1.04-1.04,1.04-2.73,0-3.77
			c-2.87-2.87-6.69-4.46-10.75-4.46h0c-4.06,0-7.88,1.58-10.75,4.45c-1.04,1.04-1.04,2.73,0,3.77c1.04,1.04,2.73,1.04,3.77,0
			c1.86-1.86,4.34-2.89,6.98-2.89C40.15,28.24,42.63,29.27,44.5,31.13z"/>
		<path class="st4" d="M94.97,83.35V17.83c0-1.47-1.2-2.67-2.67-2.67H62.51c-0.17-0.18-0.34-0.35-0.51-0.52
			C55.46,8.1,46.76,4.5,37.52,4.5c-9.25,0-17.94,3.6-24.48,10.14C6.5,21.18,2.9,29.87,2.9,39.12c0,9.25,3.6,17.94,10.14,24.48
			c0.17,0.17,0.35,0.34,0.52,0.51V93.9c0,1.47,1.2,2.67,2.67,2.67h65.52c1.73,1.44,3.86,2.15,6,2.15c2.41,0,4.82-0.91,6.64-2.73
			C97.82,92.56,98.02,87.03,94.97,83.35z M90.62,92.22c-1.54,1.54-4.08,1.57-5.66,0.06c-0.02-0.02-0.04-0.04-0.06-0.06l-25.97-25.9
			c1.07-0.84,2.09-1.75,3.07-2.73c0.97-0.97,1.88-1.99,2.71-3.05L90.63,86.5c0.02,0.02,0.03,0.04,0.05,0.05
			C92.19,88.13,92.16,90.67,90.62,92.22z M89.63,20.5v57.45l-21.9-21.93c6.17-11.04,5.83-24.77-1.03-35.52H89.63z M8.24,39.12
			c0-7.82,3.05-15.17,8.58-20.7c5.53-5.53,12.88-8.58,20.7-8.58c7.82,0,15.17,3.05,20.7,8.58c11.42,11.42,11.42,29.99,0,41.41
			c-5.53,5.53-12.88,8.58-20.7,8.58c-7.82,0-15.17-3.05-20.7-8.58C11.28,54.29,8.24,46.94,8.24,39.12z M18.9,91.23V68.31
			c5.51,3.53,11.92,5.42,18.62,5.42c6.01,0,11.78-1.52,16.88-4.38l21.94,21.88H18.9z"/>
	</g>
</g>
</svg>
